KeymanwebOsk.ufo
<glyph name="exclamdown" format="2">
  <advance width="821"/>
  <unicode hex="00A1"/>
  <outline>
    <contour>
      <point x="512" y="1493" type="line"/>
      <point x="309" y="1493" type="line"/>
      <point x="309" y="1239" type="line"/>
      <point x="512" y="1239" type="line"/>
    </contour>
    <contour>
      <point x="512" y="655" type="line"/>
      <point x="512" y="1012" type="line"/>
      <point x="330" y="1012" type="line"/>
      <point x="330" y="655" type="line"/>
      <point x="330" y="0" type="line"/>
      <point x="512" y="0" type="line"/>
    </contour>
  </outline>
</glyph>
<glyph name="sterling" format="2">
  <advance width="1303"/>
  <unicode hex="00A3"/>
  <outline>
    <contour>
      <point x="1102" y="1460" type="line"/>
      <point x="997" y="1499"/>
      <point x="892" y="1520"/>
      <point x="811" y="1520" type="curve" smooth="yes"/>
      <point x="502" y="1520"/>
      <point x="365" y="1364"/>
      <point x="365" y="1016" type="curve" smooth="yes"/>
      <point x="365" y="778" type="line"/>
      <point x="166" y="778" type="line"/>
      <point x="166" y="635" type="line"/>
      <point x="365" y="635" type="line"/>
      <point x="365" y="170" type="line"/>
      <point x="129" y="170" type="line"/>
      <point x="129" y="0" type="line"/>
      <point x="1122" y="0" type="line"/>
      <point x="1122" y="170" type="line"/>
      <point x="565" y="170" type="line"/>
      <point x="565" y="635" type="line"/>
      <point x="956" y="635" type="line"/>
      <point x="956" y="778" type="line"/>
      <point x="565" y="778" type="line"/>
      <point x="565" y="993" type="line" smooth="yes"/>
      <point x="565" y="1280"/>
      <point x="633" y="1360"/>
      <point x="829" y="1360" type="curve" smooth="yes"/>
      <point x="910" y="1360"/>
      <point x="1001" y="1333"/>
      <point x="1102" y="1278" type="curve"/>
    </contour>
  </outline>
</glyph>
<glyph name="yen" format="1">
  <advance width="1303"/>
  <unicode hex="00A5"/>
  <outline>
    <contour>
      <point x="1165" y="578" type="line"/>
      <point x="750" y="578" type="line"/>
      <point x="750" y="629" type="line"/>
      <point x="834" y="784" type="line"/>
      <point x="1165" y="784" type="line"/>
      <point x="1165" y="907" type="line"/>
      <point x="901" y="907" type="line"/>
      <point x="1219" y="1493" type="line"/>
      <point x="1028" y="1493" type="line"/>
      <point x="651" y="793" type="line"/>
      <point x="272" y="1493" type="line"/>
      <point x="82" y="1493" type="line"/>
      <point x="399" y="907" type="line"/>
      <point x="135" y="907" type="line"/>
      <point x="135" y="784" type="line"/>
      <point x="467" y="784" type="line"/>
      <point x="551" y="629" type="line"/>
      <point x="551" y="578" type="line"/>
      <point x="135" y="578" type="line"/>
      <point x="135" y="455" type="line"/>
      <point x="551" y="455" type="line"/>
      <point x="551" y="0" type="line"/>
      <point x="752" y="0" type="line"/>
      <point x="752" y="455" type="line"/>
      <point x="1165" y="455" type="line"/>
    </contour>
  </outline>
</glyph>
<glyph name="questiondown" format="1">
  <advance width="1087"/>
  <unicode hex="00BF"/>
  <outline>
    <contour>
      <point x="500" y="969" type="line"/>
      <point x="500" y="853"/>
      <point x="492" y="824"/>
      <point x="460" y="782" type="curve" smooth="yes"/>
      <point x="447" y="765"/>
      <point x="425" y="740"/>
      <point x="393" y="709" type="curve" smooth="yes"/>
      <point x="305" y="623" type="line" smooth="yes"/>
      <point x="246" y="566"/>
      <point x="204" y="515"/>
      <point x="179" y="468" type="curve" smooth="yes"/>
      <point x="155" y="423"/>
      <point x="143" y="375"/>
      <point x="143" y="324" type="curve" smooth="yes"/>
      <point x="143" y="112"/>
      <point x="307" y="-29"/>
      <point x="551" y="-29" type="curve" smooth="yes"/>
      <point x="686" y="-29"/>
      <point x="816" y="9"/>
      <point x="940" y="84" type="curve"/>
      <point x="940" y="272" type="line"/>
      <point x="811" y="183"/>
      <point x="690" y="135"/>
      <point x="586" y="135" type="curve" smooth="yes"/>
      <point x="441" y="135"/>
      <point x="346" y="215"/>
      <point x="346" y="334" type="curve" smooth="yes"/>
      <point x="346" y="399"/>
      <point x="378" y="458"/>
      <point x="455" y="530" type="curve"/>
      <point x="545" y="618" type="line" smooth="yes"/>
      <point x="605" y="676"/>
      <point x="644" y="727"/>
      <point x="662" y="770" type="curve"/>
      <point x="681" y="812"/>
      <point x="690" y="867"/>
      <point x="690" y="936" type="curve" smooth="yes"/>
      <point x="690" y="1092" type="line"/>
      <point x="500" y="1092" type="line"/>
    </contour>
    <contour>
      <point x="696" y="1493" type="line"/>
      <point x="500" y="1493" type="line"/>
      <point x="500" y="1239" type="line"/>
      <point x="696" y="1239" type="line"/>
    </contour>
  </outline>
</glyph>
<glyph name="bullet" format="2">
  <advance width="937"/>
  <unicode hex="2022"/>
  <outline>
    <contour>
      <point x="173" y="740" type="curve" smooth="yes"/>
      <point x="173" y="576"/>
      <point x="305" y="444"/>
      <point x="469" y="444" type="curve" smooth="yes"/>
      <point x="631" y="444"/>
      <point x="765" y="577"/>
      <point x="765" y="740" type="curve" smooth="yes"/>
      <point x="765" y="903"/>
      <point x="631" y="1036"/>
      <point x="468" y="1036" type="curve" smooth="yes"/>
      <point x="307" y="1036"/>
      <point x="173" y="902"/>
    </contour>
  </outline>
</glyph>
<glyph name="ellipsis" format="2">
  <advance width="2048"/>
  <unicode hex="2026"/>
  <outline>
    <contour>
      <point x="918" y="0" type="line"/>
      <point x="1130" y="0" type="line"/>
      <point x="1130" y="254" type="line"/>
      <point x="918" y="254" type="line"/>
    </contour>
    <contour>
      <point x="1599" y="0" type="line"/>
      <point x="1812" y="0" type="line"/>
      <point x="1812" y="254" type="line"/>
      <point x="1599" y="254" type="line"/>
    </contour>
    <contour>
      <point x="236" y="0" type="line"/>
      <point x="449" y="0" type="line"/>
      <point x="449" y="254" type="line"/>
      <point x="236" y="254" type="line"/>
    </contour>
  </outline>
</glyph>
<glyph name="Euro" format="1">
  <advance width="1139"/>
  <unicode hex="20AC"/>
  <outline>
    <contour>
      <point x="1107" y="1410" type="line"/>
      <point x="1007" y="1466"/>
      <point x="899" y="1491"/>
      <point x="787" y="1491" type="curve" smooth="yes"/>
      <point x="472" y="1491"/>
      <point x="153" y="1279"/>
      <point x="116" y="935" type="curve"/>
      <point x="0" y="935" type="line"/>
      <point x="0" y="799" type="line"/>
      <point x="105" y="799" type="line"/>
      <point x="105" y="669" type="line"/>
      <point x="0" y="669" type="line"/>
      <point x="0" y="536" type="line"/>
      <point x="125" y="536" type="line"/>
      <point x="152" y="188"/>
      <point x="454" y="-26"/>
      <point x="777" y="-26" type="curve" smooth="yes"/>
      <point x="874" y="-26"/>
      <point x="972" y="-7"/>
      <point x="1067" y="33" type="curve"/>
      <point x="1067" y="239" type="line"/>
      <point x="987" y="171"/>
      <point x="887" y="141"/>
      <point x="783" y="141" type="curve" smooth="yes"/>
      <point x="563" y="141"/>
      <point x="340" y="284"/>
      <point x="324" y="535" type="curve"/>
      <point x="889" y="535" type="line"/>
      <point x="907" y="669" type="line"/>
      <point x="303" y="669" type="line"/>
      <point x="303" y="672"/>
      <point x="302" y="696"/>
      <point x="302" y="724" type="curve" smooth="yes"/>
      <point x="302" y="766" type="line" smooth="yes"/>
      <point x="302" y="781"/>
      <point x="302" y="792"/>
      <point x="303" y="801" type="curve"/>
      <point x="924" y="801" type="line"/>
      <point x="941" y="935" type="line"/>
      <point x="319" y="935" type="line"/>
      <point x="343" y="1171"/>
      <point x="565" y="1326"/>
      <point x="784" y="1326" type="curve" smooth="yes"/>
      <point x="884" y="1326"/>
      <point x="984" y="1295"/>
      <point x="1067" y="1224" type="curve"/>
    </contour>
  </outline>
</glyph>
<glyph name="ctrl" format="1">
  <advance width="2459"/>
  <unicode hex="E001"/>
  <outline>
    <contour>
      <point x="2181" y="1309" type="line"/>
      <point x="2181" y="1320"/>
      <point x="2172" y="1329"/>
      <point x="2161" y="1329" type="curve" smooth="yes"/>
      <point x="2068" y="1329" type="line" smooth="yes"/>
      <point x="2057" y="1329"/>
      <point x="2048" y="1320"/>
      <point x="2048" y="1309" type="curve" smooth="yes"/>
      <point x="2048" y="257" type="line" smooth="yes"/>
      <point x="2048" y="246"/>
      <point x="2057" y="237"/>
      <point x="2068" y="237" type="curve" smooth="yes"/>
      <point x="2161" y="237" type="line" smooth="yes"/>
      <point x="2172" y="237"/>
      <point x="2181" y="246"/>
      <point x="2181" y="257" type="curve" smooth="yes"/>
    </contour>
    <contour>
      <point x="1956" y="998" type="line"/>
      <point x="1927" y="1009"/>
      <point x="1870" y="1056"/>
      <point x="1795" y="1056" type="curve" smooth="yes"/>
      <point x="1738" y="1056"/>
      <point x="1692" y="1035"/>
      <point x="1655" y="996" type="curve"/>
      <point x="1655" y="1021" type="line" smooth="yes"/>
      <point x="1655" y="1032"/>
      <point x="1646" y="1041"/>
      <point x="1635" y="1041" type="curve" smooth="yes"/>
      <point x="1537" y="1041" type="line" smooth="yes"/>
      <point x="1526" y="1041"/>
      <point x="1517" y="1032"/>
      <point x="1517" y="1021" type="curve" smooth="yes"/>
      <point x="1517" y="257" type="line" smooth="yes"/>
      <point x="1517" y="246"/>
      <point x="1526" y="237"/>
      <point x="1537" y="237" type="curve" smooth="yes"/>
      <point x="1630" y="237" type="line" smooth="yes"/>
      <point x="1641" y="237"/>
      <point x="1650" y="246"/>
      <point x="1650" y="257" type="curve" smooth="yes"/>
      <point x="1650" y="686" type="line" smooth="yes"/>
      <point x="1650" y="766"/>
      <point x="1706" y="925"/>
      <point x="1790" y="925" type="curve" smooth="yes"/>
      <point x="1818" y="925"/>
      <point x="1857" y="910"/>
      <point x="1884" y="890" type="curve"/>
      <point x="1902" y="890"/>
      <point x="1962" y="955"/>
      <point x="1968" y="972" type="curve"/>
    </contour>
    <contour>
      <point x="1417" y="282" type="line"/>
      <point x="1408" y="303"/>
      <point x="1400" y="332"/>
      <point x="1391" y="371" type="curve" smooth="yes"/>
      <point x="1388" y="382"/>
      <point x="1380" y="387"/>
      <point x="1371" y="387" type="curve" smooth="yes"/>
      <point x="1368" y="387"/>
      <point x="1365" y="387"/>
      <point x="1364" y="386" type="curve" smooth="yes"/>
      <point x="1335" y="375"/>
      <point x="1316" y="372"/>
      <point x="1292" y="372" type="curve" smooth="yes"/>
      <point x="1257" y="372"/>
      <point x="1239" y="388"/>
      <point x="1239" y="419" type="curve" smooth="yes"/>
      <point x="1239" y="924" type="line"/>
      <point x="1364" y="924" type="line" smooth="yes"/>
      <point x="1375" y="924"/>
      <point x="1384" y="933"/>
      <point x="1384" y="944" type="curve" smooth="yes"/>
      <point x="1384" y="1036" type="line" smooth="yes"/>
      <point x="1384" y="1047"/>
      <point x="1375" y="1056"/>
      <point x="1364" y="1056" type="curve" smooth="yes"/>
      <point x="1239" y="1056" type="line"/>
      <point x="1239" y="1237" type="line" smooth="yes"/>
      <point x="1239" y="1248"/>
      <point x="1230" y="1257"/>
      <point x="1219" y="1257" type="curve" smooth="yes"/>
      <point x="1126" y="1257" type="line" smooth="yes"/>
      <point x="1115" y="1257"/>
      <point x="1106" y="1248"/>
      <point x="1106" y="1237" type="curve" smooth="yes"/>
      <point x="1106" y="1056" type="line"/>
      <point x="1022" y="1056" type="line" smooth="yes"/>
      <point x="1011" y="1056"/>
      <point x="1002" y="1047"/>
      <point x="1002" y="1036" type="curve" smooth="yes"/>
      <point x="1002" y="944" type="line" smooth="yes"/>
      <point x="1002" y="933"/>
      <point x="1011" y="924"/>
      <point x="1022" y="924" type="curve" smooth="yes"/>
      <point x="1106" y="924" type="line"/>
      <point x="1106" y="408" type="line" smooth="yes"/>
      <point x="1106" y="294"/>
      <point x="1165" y="237"/>
      <point x="1282" y="237" type="curve" smooth="yes"/>
      <point x="1315" y="237"/>
      <point x="1344" y="242"/>
      <point x="1375" y="249" type="curve" smooth="yes"/>
      <point x="1402" y="254" type="line"/>
    </contour>
    <contour>
      <point x="904" y="1001" type="line"/>
      <point x="915" y="1003"/>
      <point x="920" y="1009"/>
      <point x="920" y="1020" type="curve" smooth="yes"/>
      <point x="920" y="1023"/>
      <point x="920" y="1025"/>
      <point x="919" y="1026" type="curve"/>
      <point x="860" y="1236"/>
      <point x="723" y="1341"/>
      <point x="509" y="1341" type="curve" smooth="yes"/>
      <point x="497" y="1341" type="line" smooth="yes"/>
      <point x="164" y="1336"/>
      <point x="-4" y="1152"/>
      <point x="-8" y="791" type="curve" smooth="yes"/>
      <point x="-8" y="778" type="line" smooth="yes"/>
      <point x="-8" y="413"/>
      <point x="158" y="230"/>
      <point x="490" y="229" type="curve" smooth="yes"/>
      <point x="493" y="229" type="line" smooth="yes"/>
      <point x="733" y="229"/>
      <point x="873" y="345"/>
      <point x="920" y="577" type="curve"/>
      <point x="920" y="581" type="line" smooth="yes"/>
      <point x="920" y="592"/>
      <point x="915" y="599"/>
      <point x="904" y="601" type="curve" smooth="yes"/>
      <point x="787" y="624" type="line"/>
      <point x="776" y="624"/>
      <point x="769" y="619"/>
      <point x="766" y="608" type="curve"/>
      <point x="731" y="443"/>
      <point x="634" y="362"/>
      <point x="481" y="359" type="curve"/>
      <point x="270" y="374"/>
      <point x="154" y="521"/>
      <point x="154" y="772" type="curve" smooth="yes"/>
      <point x="154" y="782" type="line" smooth="yes"/>
      <point x="157" y="1036"/>
      <point x="282" y="1184"/>
      <point x="490" y="1197" type="curve"/>
      <point x="631" y="1194"/>
      <point x="726" y="1128"/>
      <point x="765" y="992" type="curve" smooth="yes"/>
      <point x="768" y="982"/>
      <point x="775" y="977"/>
      <point x="785" y="977" type="curve" smooth="yes"/>
      <point x="788" y="977" type="line"/>
    </contour>
  </outline>
</glyph>
<glyph name="altctrl" format="2">
  <advance width="2459"/>
  <unicode hex="E002"/>
  <outline>
    <contour>
      <point x="592" y="1640" type="line"/>
      <point x="601" y="1667"/>
      <point x="610" y="1688"/>
      <point x="621" y="1719" type="curve"/>
      <point x="652" y="1640" type="line"/>
      <point x="774" y="1306" type="line"/>
      <point x="470" y="1306" type="line"/>
    </contour>
    <contour>
      <point x="1320" y="1919" type="line"/>
      <point x="1320" y="1930"/>
      <point x="1311" y="1939"/>
      <point x="1300" y="1939" type="curve" smooth="yes"/>
      <point x="1207" y="1939" type="line" smooth="yes"/>
      <point x="1196" y="1939"/>
      <point x="1187" y="1930"/>
      <point x="1187" y="1919" type="curve" smooth="yes"/>
      <point x="1187" y="867" type="line" smooth="yes"/>
      <point x="1187" y="856"/>
      <point x="1196" y="847"/>
      <point x="1207" y="847" type="curve" smooth="yes"/>
      <point x="1300" y="847" type="line" smooth="yes"/>
      <point x="1311" y="847"/>
      <point x="1320" y="856"/>
      <point x="1320" y="867" type="curve" smooth="yes"/>
    </contour>
    <contour>
      <point x="2097" y="711" type="line"/>
      <point x="2097" y="722"/>
      <point x="2088" y="731"/>
      <point x="2077" y="731" type="curve" smooth="yes"/>
      <point x="1984" y="731" type="line" smooth="yes"/>
      <point x="1973" y="731"/>
      <point x="1964" y="722"/>
      <point x="1964" y="711" type="curve" smooth="yes"/>
      <point x="1964" y="-342" type="line" smooth="yes"/>
      <point x="1964" y="-353"/>
      <point x="1973" y="-362"/>
      <point x="1984" y="-362" type="curve" smooth="yes"/>
      <point x="2077" y="-362" type="line" smooth="yes"/>
      <point x="2088" y="-362"/>
      <point x="2097" y="-353"/>
      <point x="2097" y="-342" type="curve" smooth="yes"/>
    </contour>
    <contour>
      <point x="1872" y="400" type="line"/>
      <point x="1872" y="401"/>
      <point x="1865" y="404"/>
      <point x="1858" y="408" type="curve" smooth="yes"/>
      <point x="1849" y="413" type="line" smooth="yes"/>
      <point x="1817" y="430"/>
      <point x="1768" y="457"/>
      <point x="1713" y="457" type="curve" smooth="yes"/>
      <point x="1650" y="457"/>
      <point x="1611" y="442"/>
      <point x="1572" y="398" type="curve"/>
      <point x="1572" y="423" type="line" smooth="yes"/>
      <point x="1572" y="434"/>
      <point x="1563" y="443"/>
      <point x="1552" y="443" type="curve" smooth="yes"/>
      <point x="1455" y="443" type="line" smooth="yes"/>
      <point x="1444" y="443"/>
      <point x="1435" y="434"/>
      <point x="1435" y="423" type="curve" smooth="yes"/>
      <point x="1435" y="-342" type="line" smooth="yes"/>
      <point x="1435" y="-353"/>
      <point x="1444" y="-362"/>
      <point x="1455" y="-362" type="curve" smooth="yes"/>
      <point x="1548" y="-362" type="line" smooth="yes"/>
      <point x="1559" y="-362"/>
      <point x="1568" y="-353"/>
      <point x="1568" y="-342" type="curve" smooth="yes"/>
      <point x="1568" y="87" type="line" smooth="yes"/>
      <point x="1568" y="167"/>
      <point x="1623" y="325"/>
      <point x="1707" y="325" type="curve" smooth="yes"/>
      <point x="1736" y="325"/>
      <point x="1776" y="311"/>
      <point x="1803" y="292" type="curve"/>
      <point x="1819" y="292"/>
      <point x="1880" y="357"/>
      <point x="1886" y="374" type="curve"/>
    </contour>
    <contour>
      <point x="1346" y="-332" type="line"/>
      <point x="1335" y="-306"/>
      <point x="1326" y="-276"/>
      <point x="1317" y="-241" type="curve" smooth="yes"/>
      <point x="1315" y="-231"/>
      <point x="1309" y="-226"/>
      <point x="1298" y="-226" type="curve" smooth="yes"/>
      <point x="1295" y="-226"/>
      <point x="1293" y="-226"/>
      <point x="1292" y="-227" type="curve"/>
      <point x="1284" y="-229" type="line" smooth="yes"/>
      <point x="1260" y="-236"/>
      <point x="1242" y="-241"/>
      <point x="1221" y="-241" type="curve" smooth="yes"/>
      <point x="1186" y="-241"/>
      <point x="1168" y="-225"/>
      <point x="1168" y="-194" type="curve" smooth="yes"/>
      <point x="1168" y="311" type="line"/>
      <point x="1293" y="311" type="line" smooth="yes"/>
      <point x="1304" y="311"/>
      <point x="1313" y="320"/>
      <point x="1313" y="331" type="curve" smooth="yes"/>
      <point x="1313" y="423" type="line" smooth="yes"/>
      <point x="1313" y="434"/>
      <point x="1304" y="443"/>
      <point x="1293" y="443" type="curve" smooth="yes"/>
      <point x="1168" y="443" type="line"/>
      <point x="1168" y="624" type="line" smooth="yes"/>
      <point x="1168" y="635"/>
      <point x="1159" y="644"/>
      <point x="1148" y="644" type="curve" smooth="yes"/>
      <point x="1055" y="644" type="line" smooth="yes"/>
      <point x="1044" y="644"/>
      <point x="1035" y="635"/>
      <point x="1035" y="624" type="curve" smooth="yes"/>
      <point x="1035" y="443" type="line"/>
      <point x="951" y="443" type="line" smooth="yes"/>
      <point x="940" y="443"/>
      <point x="931" y="434"/>
      <point x="931" y="423" type="curve" smooth="yes"/>
      <point x="931" y="331" type="line" smooth="yes"/>
      <point x="931" y="320"/>
      <point x="940" y="311"/>
      <point x="951" y="311" type="curve" smooth="yes"/>
      <point x="1035" y="311" type="line"/>
      <point x="1035" y="-205" type="line" smooth="yes"/>
      <point x="1035" y="-319"/>
      <point x="1094" y="-376"/>
      <point x="1211" y="-376" type="curve" smooth="yes"/>
      <point x="1244" y="-376"/>
      <point x="1273" y="-371"/>
      <point x="1304" y="-364" type="curve" smooth="yes"/>
      <point x="1331" y="-359" type="line"/>
    </contour>
    <contour>
      <point x="1868" y="892" type="line"/>
      <point x="1858" y="917"/>
      <point x="1849" y="947"/>
      <point x="1840" y="982" type="curve" smooth="yes"/>
      <point x="1838" y="992"/>
      <point x="1832" y="997"/>
      <point x="1821" y="997" type="curve" smooth="yes"/>
      <point x="1818" y="997"/>
      <point x="1815" y="997"/>
      <point x="1814" y="996" type="curve" smooth="yes"/>
      <point x="1785" y="985"/>
      <point x="1767" y="982"/>
      <point x="1742" y="982" type="curve" smooth="yes"/>
      <point x="1707" y="982"/>
      <point x="1690" y="998"/>
      <point x="1690" y="1029" type="curve" smooth="yes"/>
      <point x="1690" y="1534" type="line"/>
      <point x="1815" y="1534" type="line" smooth="yes"/>
      <point x="1826" y="1534"/>
      <point x="1835" y="1543"/>
      <point x="1835" y="1554" type="curve" smooth="yes"/>
      <point x="1835" y="1646" type="line" smooth="yes"/>
      <point x="1835" y="1657"/>
      <point x="1826" y="1666"/>
      <point x="1815" y="1666" type="curve" smooth="yes"/>
      <point x="1690" y="1666" type="line"/>
      <point x="1690" y="1847" type="line" smooth="yes"/>
      <point x="1690" y="1858"/>
      <point x="1681" y="1867"/>
      <point x="1670" y="1867" type="curve" smooth="yes"/>
      <point x="1577" y="1867" type="line" smooth="yes"/>
      <point x="1566" y="1867"/>
      <point x="1557" y="1858"/>
      <point x="1557" y="1847" type="curve" smooth="yes"/>
      <point x="1557" y="1666" type="line"/>
      <point x="1473" y="1666" type="line" smooth="yes"/>
      <point x="1462" y="1666"/>
      <point x="1453" y="1657"/>
      <point x="1453" y="1646" type="curve" smooth="yes"/>
      <point x="1453" y="1554" type="line" smooth="yes"/>
      <point x="1453" y="1543"/>
      <point x="1462" y="1534"/>
      <point x="1473" y="1534" type="curve" smooth="yes"/>
      <point x="1557" y="1534" type="line"/>
      <point x="1557" y="1018" type="line" smooth="yes"/>
      <point x="1557" y="904"/>
      <point x="1616" y="847"/>
      <point x="1733" y="847" type="curve" smooth="yes"/>
      <point x="1766" y="847"/>
      <point x="1795" y="852"/>
      <point x="1826" y="859" type="curve" smooth="yes"/>
      <point x="1853" y="864" type="line"/>
    </contour>
    <contour>
      <point x="824" y="403" type="line"/>
      <point x="835" y="406"/>
      <point x="840" y="412"/>
      <point x="840" y="423" type="curve"/>
      <point x="839" y="428" type="line" smooth="yes"/>
      <point x="781" y="637"/>
      <point x="645" y="742"/>
      <point x="430" y="742" type="curve" smooth="yes"/>
      <point x="418" y="742" type="line" smooth="yes"/>
      <point x="87" y="737"/>
      <point x="-84" y="553"/>
      <point x="-88" y="193" type="curve" smooth="yes"/>
      <point x="-88" y="180" type="line" smooth="yes"/>
      <point x="-88" y="-185"/>
      <point x="78" y="-366"/>
      <point x="409" y="-369" type="curve" smooth="yes"/>
      <point x="415" y="-369" type="line" smooth="yes"/>
      <point x="655" y="-369"/>
      <point x="795" y="-251"/>
      <point x="840" y="-22" type="curve"/>
      <point x="840" y="-18" type="line" smooth="yes"/>
      <point x="840" y="-7"/>
      <point x="835" y="0"/>
      <point x="824" y="2" type="curve" smooth="yes"/>
      <point x="706" y="25" type="line"/>
      <point x="695" y="25"/>
      <point x="688" y="20"/>
      <point x="686" y="9" type="curve" smooth="yes"/>
      <point x="651" y="-156"/>
      <point x="555" y="-237"/>
      <point x="402" y="-240" type="curve"/>
      <point x="190" y="-225"/>
      <point x="74" y="-78"/>
      <point x="74" y="173" type="curve" smooth="yes"/>
      <point x="74" y="183" type="line" smooth="yes"/>
      <point x="77" y="437"/>
      <point x="202" y="586"/>
      <point x="409" y="599" type="curve"/>
      <point x="552" y="596"/>
      <point x="647" y="530"/>
      <point x="686" y="394" type="curve" smooth="yes"/>
      <point x="689" y="384"/>
      <point x="696" y="379"/>
      <point x="706" y="379" type="curve" smooth="yes"/>
      <point x="709" y="379" type="line"/>
    </contour>
    <contour>
      <point x="281" y="847" type="line"/>
      <point x="288" y="847"/>
      <point x="297" y="853"/>
      <point x="300" y="860" type="curve" smooth="yes"/>
      <point x="419" y="1171" type="line"/>
      <point x="826" y="1171" type="line"/>
      <point x="943" y="860" type="line" smooth="yes"/>
      <point x="946" y="853"/>
      <point x="955" y="847"/>
      <point x="962" y="847" type="curve" smooth="yes"/>
      <point x="1095" y="847" type="line" smooth="yes"/>
      <point x="1108" y="847"/>
      <point x="1115" y="853"/>
      <point x="1115" y="866" type="curve" smooth="yes"/>
      <point x="1115" y="869"/>
      <point x="1115" y="872"/>
      <point x="1114" y="874" type="curve" smooth="yes"/>
      <point x="718" y="1926" type="line" smooth="yes"/>
      <point x="715" y="1933"/>
      <point x="706" y="1939"/>
      <point x="699" y="1939" type="curve" smooth="yes"/>
      <point x="546" y="1939" type="line" smooth="yes"/>
      <point x="539" y="1939"/>
      <point x="530" y="1933"/>
      <point x="527" y="1926" type="curve" smooth="yes"/>
      <point x="450" y="1719"/>
      <point x="367" y="1500"/>
      <point x="288" y="1293" type="curve" smooth="yes"/>
      <point x="129" y="874" type="line" smooth="yes"/>
      <point x="128" y="872"/>
      <point x="128" y="869"/>
      <point x="128" y="866" type="curve" smooth="yes"/>
      <point x="128" y="853"/>
      <point x="135" y="847"/>
      <point x="148" y="847" type="curve" smooth="yes"/>
    </contour>
  </outline>
</glyph>
<glyph name="caps" format="2">
  <advance width="2948"/>
  <unicode hex="E003"/>
  <outline>
    <contour>
      <point x="1212" y="467" type="line"/>
      <point x="1159" y="416"/>
      <point x="1101" y="368"/>
      <point x="1026" y="368" type="curve" smooth="yes"/>
      <point x="944" y="368"/>
      <point x="903" y="389"/>
      <point x="903" y="431" type="curve" smooth="yes"/>
      <point x="903" y="468"/>
      <point x="920" y="496"/>
      <point x="954" y="516" type="curve" smooth="yes"/>
      <point x="953" y="515" type="line" smooth="yes"/>
      <point x="989" y="534"/>
      <point x="1148" y="557"/>
      <point x="1212" y="573" type="curve"/>
    </contour>
    <contour>
      <point x="1938" y="603" type="curve" smooth="yes"/>
      <point x="1938" y="479"/>
      <point x="1865" y="368"/>
      <point x="1767" y="368" type="curve" smooth="yes"/>
      <point x="1674" y="368"/>
      <point x="1609" y="476"/>
      <point x="1609" y="603" type="curve" smooth="yes"/>
      <point x="1609" y="731"/>
      <point x="1676" y="849"/>
      <point x="1767" y="849" type="curve" smooth="yes"/>
      <point x="1863" y="849"/>
      <point x="1938" y="737"/>
    </contour>
    <contour>
      <point x="2704" y="459" type="curve" smooth="yes"/>
      <point x="2704" y="549"/>
      <point x="2672" y="604"/>
      <point x="2474" y="660" type="curve"/>
      <point x="2312" y="708"/>
      <point x="2282" y="721"/>
      <point x="2282" y="786" type="curve" smooth="yes"/>
      <point x="2282" y="826"/>
      <point x="2345" y="854"/>
      <point x="2417" y="854" type="curve" smooth="yes"/>
      <point x="2479" y="854"/>
      <point x="2543" y="821"/>
      <point x="2551" y="765" type="curve" smooth="yes"/>
      <point x="2552" y="754"/>
      <point x="2560" y="747"/>
      <point x="2571" y="747" type="curve"/>
      <point x="2656" y="762" type="line"/>
      <point x="2667" y="765"/>
      <point x="2672" y="771"/>
      <point x="2672" y="782" type="curve" smooth="yes"/>
      <point x="2672" y="872"/>
      <point x="2550" y="974"/>
      <point x="2422" y="974" type="curve" smooth="yes"/>
      <point x="2277" y="974"/>
      <point x="2161" y="881"/>
      <point x="2161" y="786" type="curve" smooth="yes"/>
      <point x="2161" y="701"/>
      <point x="2200" y="640"/>
      <point x="2279" y="601" type="curve"/>
      <point x="2294" y="590"/>
      <point x="2360" y="575"/>
      <point x="2488" y="536" type="curve" smooth="yes"/>
      <point x="2551" y="517"/>
      <point x="2582" y="492"/>
      <point x="2582" y="461" type="curve" smooth="yes"/>
      <point x="2582" y="409"/>
      <point x="2500" y="363"/>
      <point x="2424" y="363" type="curve" smooth="yes"/>
      <point x="2336" y="363"/>
      <point x="2296" y="388"/>
      <point x="2256" y="481" type="curve" smooth="yes"/>
      <point x="2253" y="488"/>
      <point x="2246" y="492"/>
      <point x="2237" y="492" type="curve"/>
      <point x="2156" y="472" type="line"/>
      <point x="2147" y="469"/>
      <point x="2141" y="462"/>
      <point x="2141" y="454" type="curve" smooth="yes"/>
      <point x="2141" y="451"/>
      <point x="2141" y="448"/>
      <point x="2142" y="447" type="curve" smooth="yes"/>
      <point x="2189" y="308"/>
      <point x="2277" y="241"/>
      <point x="2424" y="241" type="curve" smooth="yes"/>
      <point x="2575" y="241"/>
      <point x="2704" y="348"/>
    </contour>
    <contour>
      <point x="1373" y="295" type="line"/>
      <point x="1353" y="334"/>
      <point x="1348" y="392"/>
      <point x="1340" y="480" type="curve"/>
      <point x="1340" y="783" type="line" smooth="yes"/>
      <point x="1340" y="884"/>
      <point x="1216" y="974"/>
      <point x="1089" y="974" type="curve" smooth="yes"/>
      <point x="952" y="974"/>
      <point x="807" y="857"/>
      <point x="788" y="745" type="curve" smooth="yes"/>
      <point x="788" y="742" type="line" smooth="yes"/>
      <point x="788" y="731"/>
      <point x="795" y="723"/>
      <point x="806" y="722" type="curve" smooth="yes"/>
      <point x="860" y="717"/>
      <point x="868" y="706"/>
      <point x="884" y="706" type="curve" smooth="yes"/>
      <point x="893" y="706"/>
      <point x="900" y="711"/>
      <point x="903" y="720" type="curve" smooth="yes"/>
      <point x="931" y="807"/>
      <point x="998" y="853"/>
      <point x="1086" y="853" type="curve" smooth="yes"/>
      <point x="1150" y="853"/>
      <point x="1190" y="825"/>
      <point x="1218" y="769" type="curve"/>
      <point x="1218" y="699" type="line"/>
      <point x="1207" y="698"/>
      <point x="1195" y="695"/>
      <point x="1154" y="686" type="curve"/>
      <point x="1102" y="673"/>
      <point x="981" y="652"/>
      <point x="956" y="646" type="curve" smooth="yes"/>
      <point x="839" y="619"/>
      <point x="777" y="541"/>
      <point x="777" y="424" type="curve" smooth="yes"/>
      <point x="777" y="299"/>
      <point x="853" y="241"/>
      <point x="1026" y="241" type="curve" smooth="yes"/>
      <point x="1110" y="241"/>
      <point x="1167" y="263"/>
      <point x="1235" y="322" type="curve"/>
      <point x="1238" y="306"/>
      <point x="1256" y="241"/>
      <point x="1279" y="241" type="curve" smooth="yes"/>
      <point x="1289" y="241"/>
      <point x="1325" y="257"/>
      <point x="1347" y="263" type="curve"/>
      <point x="1346" y="262" type="line"/>
      <point x="1351" y="263"/>
      <point x="1356" y="266"/>
      <point x="1360" y="267" type="curve"/>
    </contour>
    <contour>
      <point x="693" y="1006" type="line"/>
      <point x="704" y="1008"/>
      <point x="709" y="1014"/>
      <point x="709" y="1025" type="curve" smooth="yes"/>
      <point x="709" y="1028"/>
      <point x="709" y="1030"/>
      <point x="708" y="1031" type="curve"/>
      <point x="650" y="1238"/>
      <point x="515" y="1341"/>
      <point x="304" y="1341" type="curve" smooth="yes"/>
      <point x="292" y="1341" type="line" smooth="yes"/>
      <point x="-35" y="1334"/>
      <point x="-204" y="1153"/>
      <point x="-208" y="797" type="curve" smooth="yes"/>
      <point x="-208" y="784" type="line" smooth="yes"/>
      <point x="-208" y="424"/>
      <point x="-45" y="244"/>
      <point x="283" y="241" type="curve" smooth="yes"/>
      <point x="286" y="241" type="line" smooth="yes"/>
      <point x="525" y="241"/>
      <point x="664" y="356"/>
      <point x="709" y="584" type="curve"/>
      <point x="709" y="588" type="line" smooth="yes"/>
      <point x="709" y="599"/>
      <point x="704" y="606"/>
      <point x="693" y="608" type="curve" smooth="yes"/>
      <point x="576" y="633" type="line"/>
      <point x="565" y="633"/>
      <point x="558" y="628"/>
      <point x="556" y="617" type="curve" smooth="yes"/>
      <point x="522" y="455"/>
      <point x="429" y="373"/>
      <point x="276" y="371" type="curve"/>
      <point x="67" y="386"/>
      <point x="-48" y="532"/>
      <point x="-48" y="780" type="curve" smooth="yes"/>
      <point x="-48" y="790" type="line" smooth="yes"/>
      <point x="-45" y="1040"/>
      <point x="79" y="1188"/>
      <point x="284" y="1199" type="curve"/>
      <point x="424" y="1196"/>
      <point x="517" y="1129"/>
      <point x="556" y="996" type="curve" smooth="yes"/>
      <point x="559" y="987"/>
      <point x="566" y="982"/>
      <point x="575" y="982" type="curve" smooth="yes"/>
      <point x="579" y="982" type="line"/>
    </contour>
    <contour>
      <point x="2064" y="603" type="curve" smooth="yes"/>
      <point x="2064" y="799"/>
      <point x="1939" y="974"/>
      <point x="1767" y="974" type="curve" smooth="yes"/>
      <point x="1706" y="974"/>
      <point x="1663" y="958"/>
      <point x="1607" y="911" type="curve"/>
      <point x="1607" y="941" type="line" smooth="yes"/>
      <point x="1607" y="952"/>
      <point x="1598" y="961"/>
      <point x="1587" y="961" type="curve" smooth="yes"/>
      <point x="1503" y="961" type="line" smooth="yes"/>
      <point x="1492" y="961"/>
      <point x="1483" y="952"/>
      <point x="1483" y="941" type="curve" smooth="yes"/>
      <point x="1483" y="15" type="line" smooth="yes"/>
      <point x="1483" y="4"/>
      <point x="1492" y="-5"/>
      <point x="1503" y="-5" type="curve" smooth="yes"/>
      <point x="1587" y="-5" type="line" smooth="yes"/>
      <point x="1598" y="-5"/>
      <point x="1607" y="4"/>
      <point x="1607" y="15" type="curve" smooth="yes"/>
      <point x="1607" y="305" type="line"/>
      <point x="1662" y="260"/>
      <point x="1704" y="241"/>
      <point x="1767" y="241" type="curve" smooth="yes"/>
      <point x="1940" y="241"/>
      <point x="2064" y="407"/>
    </contour>
  </outline>
</glyph>
<glyph name="back" format="2">
  <advance width="2398"/>
  <unicode hex="E004"/>
  <outline>
    <contour>
      <point x="946" y="1624" type="line"/>
      <point x="895" y="1624"/>
      <point x="851" y="1609"/>
      <point x="812" y="1579" type="curve"/>
      <point x="136" y="903" type="line" smooth="yes"/>
      <point x="104" y="871"/>
      <point x="88" y="830"/>
      <point x="88" y="787" type="curve" smooth="yes"/>
      <point x="88" y="744"/>
      <point x="104" y="703"/>
      <point x="136" y="671" type="curve" smooth="yes"/>
      <point x="794" y="16" type="line"/>
      <point x="827" y="-27"/>
      <point x="885" y="-54"/>
      <point x="946" y="-54" type="curve" smooth="yes"/>
      <point x="2301" y="-54" type="line" smooth="yes"/>
      <point x="2415" y="-54"/>
      <point x="2508" y="37"/>
      <point x="2508" y="152" type="curve" smooth="yes"/>
      <point x="2508" y="1420" type="line" smooth="yes"/>
      <point x="2508" y="1533"/>
      <point x="2415" y="1624"/>
      <point x="2301" y="1624" type="curve" smooth="yes"/>
    </contour>
    <contour>
      <point x="2116" y="522" type="line"/>
      <point x="1914" y="320" type="line"/>
      <point x="1649" y="584" type="line"/>
      <point x="1383" y="320" type="line"/>
      <point x="1180" y="522" type="line"/>
      <point x="1446" y="785" type="line"/>
      <point x="1180" y="1049" type="line"/>
      <point x="1383" y="1253" type="line"/>
      <point x="1649" y="991" type="line"/>
      <point x="1914" y="1253" type="line"/>
      <point x="2116" y="1049" type="line"/>
      <point x="1851" y="785" type="line"/>
    </contour>
  </outline>
</glyph>
<glyph name="enter" format="2">
  <advance width="1692"/>
  <unicode hex="E005"/>
  <outline>
    <contour>
      <point x="1815" y="427" type="curve" smooth="yes"/>
      <point x="1823" y="445"/>
      <point x="1827" y="464"/>
      <point x="1827" y="484" type="curve" smooth="yes"/>
      <point x="1827" y="1298" type="line" smooth="yes"/>
      <point x="1827" y="1379"/>
      <point x="1762" y="1445"/>
      <point x="1682" y="1445" type="curve" smooth="yes"/>
      <point x="1524" y="1445" type="line" smooth="yes"/>
      <point x="1443" y="1445"/>
      <point x="1377" y="1379"/>
      <point x="1377" y="1298" type="curve" smooth="yes"/>
      <point x="1377" y="824" type="line"/>
      <point x="734" y="824" type="line"/>
      <point x="734" y="1122" type="line" smooth="yes"/>
      <point x="734" y="1202"/>
      <point x="667" y="1267"/>
      <point x="587" y="1267" type="curve" smooth="yes"/>
      <point x="548" y="1267"/>
      <point x="512" y="1252"/>
      <point x="484" y="1224" type="curve" smooth="yes"/>
      <point x="-56" y="684" type="line" smooth="yes"/>
      <point x="-83" y="657"/>
      <point x="-99" y="621"/>
      <point x="-99" y="582" type="curve" smooth="yes"/>
      <point x="-99" y="540"/>
      <point x="-85" y="505"/>
      <point x="-56" y="478" type="curve"/>
      <point x="484" y="-62" type="line" smooth="yes"/>
      <point x="512" y="-91"/>
      <point x="548" y="-106"/>
      <point x="587" y="-106" type="curve" smooth="yes"/>
      <point x="669" y="-106"/>
      <point x="734" y="-38"/>
      <point x="734" y="41" type="curve" smooth="yes"/>
      <point x="734" y="338" type="line"/>
      <point x="1681" y="338" type="line" smooth="yes"/>
      <point x="1742" y="338"/>
      <point x="1792" y="375"/>
    </contour>
    <contour>
      <point x="1537" y="665" type="line"/>
      <point x="1537" y="1285" type="line"/>
      <point x="1668" y="1285" type="line"/>
      <point x="1668" y="497" type="line"/>
      <point x="588" y="497" type="line" smooth="yes"/>
      <point x="579" y="497"/>
      <point x="574" y="493"/>
      <point x="574" y="484" type="curve" smooth="yes"/>
      <point x="574" y="72" type="line"/>
      <point x="66" y="582" type="line"/>
      <point x="574" y="1090" type="line"/>
      <point x="574" y="678" type="line" smooth="yes"/>
      <point x="574" y="669"/>
      <point x="579" y="665"/>
      <point x="588" y="665" type="curve" smooth="yes"/>
    </contour>
  </outline>
</glyph>
<glyph name="next" format="1">
  <advance width="1659"/>
  <unicode hex="E006"/>
  <outline>
    <contour>
      <point x="1202" y="682" type="line"/>
      <point x="1231" y="711"/>
      <point x="1245" y="745"/>
      <point x="1245" y="785" type="curve" smooth="yes"/>
      <point x="1245" y="825"/>
      <point x="1231" y="861"/>
      <point x="1202" y="888" type="curve"/>
      <point x="662" y="1428" type="line" smooth="yes"/>
      <point x="633" y="1457"/>
      <point x="599" y="1471"/>
      <point x="560" y="1471" type="curve" smooth="yes"/>
      <point x="473" y="1471"/>
      <point x="414" y="1401"/>
      <point x="414" y="1326" type="curve" smooth="yes"/>
      <point x="414" y="1028" type="line"/>
      <point x="66" y="1028" type="line" smooth="yes"/>
      <point x="-14" y="1028"/>
      <point x="-80" y="964"/>
      <point x="-80" y="882" type="curve" smooth="yes"/>
      <point x="-80" y="688" type="line" smooth="yes"/>
      <point x="-80" y="608"/>
      <point x="-14" y="542"/>
      <point x="66" y="542" type="curve" smooth="yes"/>
      <point x="414" y="542" type="line"/>
      <point x="414" y="245" type="line" smooth="yes"/>
      <point x="414" y="169"/>
      <point x="475" y="97"/>
      <point x="559" y="97" type="curve" smooth="yes"/>
      <point x="598" y="97"/>
      <point x="635" y="113"/>
      <point x="662" y="142" type="curve"/>
    </contour>
    <contour>
      <point x="79" y="701" type="line"/>
      <point x="79" y="869" type="line"/>
      <point x="559" y="869" type="line" smooth="yes"/>
      <point x="568" y="869"/>
      <point x="572" y="873"/>
      <point x="572" y="882" type="curve" smooth="yes"/>
      <point x="572" y="1294" type="line"/>
      <point x="1081" y="785" type="line"/>
      <point x="572" y="276" type="line"/>
      <point x="572" y="688" type="line" smooth="yes"/>
      <point x="572" y="697"/>
      <point x="568" y="701"/>
      <point x="559" y="701" type="curve" smooth="yes"/>
      <point x="493" y="701" type="line"/>
    </contour>
    <contour>
      <point x="1765" y="1536" type="line"/>
      <point x="1765" y="1618"/>
      <point x="1699" y="1682"/>
      <point x="1620" y="1682" type="curve" smooth="yes"/>
      <point x="1461" y="1682" type="line" smooth="yes"/>
      <point x="1380" y="1682"/>
      <point x="1315" y="1618"/>
      <point x="1315" y="1536" type="curve" smooth="yes"/>
      <point x="1315" y="36" type="line" smooth="yes"/>
      <point x="1315" y="-46"/>
      <point x="1380" y="-110"/>
      <point x="1460" y="-110" type="curve" smooth="yes"/>
      <point x="1618" y="-110" type="line" smooth="yes"/>
      <point x="1699" y="-110"/>
      <point x="1765" y="-46"/>
      <point x="1765" y="36" type="curve" smooth="yes"/>
    </contour>
    <contour>
      <point x="1473" y="1523" type="line"/>
      <point x="1605" y="1523" type="line"/>
      <point x="1605" y="49" type="line"/>
      <point x="1473" y="49" type="line"/>
    </contour>
  </outline>
</glyph>
<glyph name="previous" format="2">
  <advance width="1659"/>
  <unicode hex="E007"/>
  <outline>
    <contour>
      <point x="482" y="887" type="line"/>
      <point x="453" y="858"/>
      <point x="439" y="824"/>
      <point x="439" y="784" type="curve" smooth="yes"/>
      <point x="438" y="743"/>
      <point x="454" y="708"/>
      <point x="482" y="681" type="curve" smooth="yes"/>
      <point x="1022" y="141" type="line" smooth="yes"/>
      <point x="1051" y="112"/>
      <point x="1085" y="97"/>
      <point x="1124" y="97" type="curve" smooth="yes"/>
      <point x="1207" y="97"/>
      <point x="1271" y="166"/>
      <point x="1271" y="243" type="curve" smooth="yes"/>
      <point x="1271" y="541" type="line"/>
      <point x="1619" y="541" type="line" smooth="yes"/>
      <point x="1698" y="541"/>
      <point x="1764" y="605"/>
      <point x="1764" y="687" type="curve" smooth="yes"/>
      <point x="1764" y="881" type="line" smooth="yes"/>
      <point x="1764" y="961"/>
      <point x="1698" y="1027"/>
      <point x="1619" y="1027" type="curve" smooth="yes"/>
      <point x="1271" y="1027" type="line"/>
      <point x="1271" y="1324" type="line" smooth="yes"/>
      <point x="1271" y="1403"/>
      <point x="1205" y="1471"/>
      <point x="1124" y="1471" type="curve" smooth="yes"/>
      <point x="1085" y="1471"/>
      <point x="1049" y="1456"/>
      <point x="1022" y="1427" type="curve"/>
    </contour>
    <contour>
      <point x="1605" y="868" type="line"/>
      <point x="1605" y="700" type="line"/>
      <point x="1125" y="700" type="line" smooth="yes"/>
      <point x="1116" y="700"/>
      <point x="1112" y="696"/>
      <point x="1112" y="687" type="curve" smooth="yes"/>
      <point x="1112" y="275" type="line"/>
      <point x="603" y="784" type="line"/>
      <point x="1112" y="1293" type="line"/>
      <point x="1112" y="881" type="line" smooth="yes"/>
      <point x="1112" y="872"/>
      <point x="1116" y="868"/>
      <point x="1125" y="868" type="curve" smooth="yes"/>
      <point x="1191" y="868" type="line"/>
    </contour>
    <contour>
      <point x="-81" y="33" type="line"/>
      <point x="-81" y="-49"/>
      <point x="-15" y="-113"/>
      <point x="65" y="-113" type="curve" smooth="yes"/>
      <point x="223" y="-113" type="line" smooth="yes"/>
      <point x="305" y="-113"/>
      <point x="369" y="-49"/>
      <point x="369" y="33" type="curve" smooth="yes"/>
      <point x="369" y="1533" type="line" smooth="yes"/>
      <point x="369" y="1615"/>
      <point x="304" y="1679"/>
      <point x="224" y="1679" type="curve" smooth="yes"/>
      <point x="66" y="1679" type="line" smooth="yes"/>
      <point x="-15" y="1679"/>
      <point x="-81" y="1615"/>
      <point x="-81" y="1533" type="curve" smooth="yes"/>
    </contour>
    <contour>
      <point x="211" y="46" type="line"/>
      <point x="79" y="46" type="line"/>
      <point x="79" y="1520" type="line"/>
      <point x="211" y="1520" type="line"/>
    </contour>
  </outline>
</glyph>
<glyph name="shift" format="2">
  <advance width="1843"/>
  <unicode hex="E008"/>
  <outline>
    <contour>
      <point x="1122" y="147" type="line"/>
      <point x="715" y="147" type="line"/>
      <point x="715" y="679" type="line"/>
      <point x="212" y="679" type="line"/>
      <point x="905" y="1371" type="line"/>
      <point x="933" y="1371" type="line"/>
      <point x="1625" y="679" type="line"/>
      <point x="1122" y="679" type="line"/>
    </contour>
    <contour>
      <point x="1048" y="1568" type="line"/>
      <point x="1004" y="1612"/>
      <point x="961" y="1634"/>
      <point x="919" y="1634" type="curve" smooth="yes"/>
      <point x="876" y="1634"/>
      <point x="833" y="1612"/>
      <point x="789" y="1568" type="curve" smooth="yes"/>
      <point x="39" y="818" type="line" smooth="yes"/>
      <point x="4" y="783"/>
      <point x="-15" y="726"/>
      <point x="-15" y="661" type="curve" smooth="yes"/>
      <point x="-15" y="521"/>
      <point x="85" y="458"/>
      <point x="168" y="458" type="curve" smooth="yes"/>
      <point x="534" y="458" type="line"/>
      <point x="534" y="159" type="line" smooth="yes"/>
      <point x="534" y="36"/>
      <point x="616" y="-64"/>
      <point x="717" y="-64" type="curve" smooth="yes"/>
      <point x="1120" y="-64" type="line" smooth="yes"/>
      <point x="1221" y="-64"/>
      <point x="1303" y="36"/>
      <point x="1303" y="159" type="curve" smooth="yes"/>
      <point x="1303" y="456" type="line"/>
      <point x="1669" y="456" type="line" smooth="yes"/>
      <point x="1752" y="456"/>
      <point x="1852" y="517"/>
      <point x="1852" y="661" type="curve" smooth="yes"/>
      <point x="1852" y="725"/>
      <point x="1833" y="782"/>
      <point x="1798" y="818" type="curve" smooth="yes"/>
    </contour>
  </outline>
</glyph>
<glyph name="shifted" format="2">
  <advance width="1843"/>
  <unicode hex="E009"/>
  <outline>
    <contour>
      <point x="1055" y="1516" type="line" smooth="yes"/>
      <point x="1019" y="1552"/>
      <point x="970" y="1573"/>
      <point x="919" y="1573" type="curve" smooth="yes"/>
      <point x="865" y="1573"/>
      <point x="818" y="1552"/>
      <point x="782" y="1516" type="curve" smooth="yes"/>
      <point x="70" y="803" type="line" smooth="yes"/>
      <point x="32" y="765"/>
      <point x="13" y="720"/>
      <point x="13" y="667" type="curve" smooth="yes"/>
      <point x="13" y="557"/>
      <point x="103" y="474"/>
      <point x="205" y="474" type="curve" smooth="yes"/>
      <point x="534" y="474" type="line"/>
      <point x="534" y="190" type="line" smooth="yes"/>
      <point x="534" y="82"/>
      <point x="620" y="0"/>
      <point x="727" y="0" type="curve" smooth="yes"/>
      <point x="1110" y="0" type="line" smooth="yes"/>
      <point x="1216" y="0"/>
      <point x="1303" y="82"/>
      <point x="1303" y="190" type="curve" smooth="yes"/>
      <point x="1303" y="474" type="line"/>
      <point x="1631" y="474" type="line" smooth="yes"/>
      <point x="1732" y="474"/>
      <point x="1824" y="556"/>
      <point x="1824" y="667" type="curve"/>
      <point x="1823" y="717"/>
      <point x="1806" y="763"/>
      <point x="1767" y="803" type="curve" smooth="yes"/>
    </contour>
  </outline>
</glyph>
<glyph name="hide" format="1">
  <advance width="2196"/>
  <unicode hex="E00A"/>
  <outline>
    <contour>
      <point x="810" y="1095" type="line"/>
      <point x="810" y="1088"/>
      <point x="813" y="1085"/>
      <point x="820" y="1085" type="curve" smooth="yes"/>
      <point x="965" y="1085" type="line" smooth="yes"/>
      <point x="972" y="1085"/>
      <point x="975" y="1088"/>
      <point x="975" y="1095" type="curve" smooth="yes"/>
      <point x="975" y="1240" type="line" smooth="yes"/>
      <point x="975" y="1247"/>
      <point x="972" y="1250"/>
      <point x="965" y="1250" type="curve" smooth="yes"/>
      <point x="820" y="1250" type="line" smooth="yes"/>
      <point x="813" y="1250"/>
      <point x="810" y="1247"/>
      <point x="810" y="1240" type="curve" smooth="yes"/>
    </contour>
    <contour>
      <point x="1110" y="1095" type="line"/>
      <point x="1110" y="1088"/>
      <point x="1113" y="1085"/>
      <point x="1120" y="1085" type="curve" smooth="yes"/>
      <point x="1265" y="1085" type="line" smooth="yes"/>
      <point x="1272" y="1085"/>
      <point x="1275" y="1088"/>
      <point x="1275" y="1095" type="curve" smooth="yes"/>
      <point x="1275" y="1240" type="line" smooth="yes"/>
      <point x="1275" y="1247"/>
      <point x="1272" y="1250"/>
      <point x="1265" y="1250" type="curve" smooth="yes"/>
      <point x="1120" y="1250" type="line" smooth="yes"/>
      <point x="1113" y="1250"/>
      <point x="1110" y="1247"/>
      <point x="1110" y="1240" type="curve" smooth="yes"/>
    </contour>
    <contour>
      <point x="1710" y="1095" type="line"/>
      <point x="1710" y="1088"/>
      <point x="1713" y="1085"/>
      <point x="1720" y="1085" type="curve" smooth="yes"/>
      <point x="1865" y="1085" type="line" smooth="yes"/>
      <point x="1872" y="1085"/>
      <point x="1875" y="1088"/>
      <point x="1875" y="1095" type="curve" smooth="yes"/>
      <point x="1875" y="1240" type="line" smooth="yes"/>
      <point x="1875" y="1247"/>
      <point x="1872" y="1250"/>
      <point x="1865" y="1250" type="curve" smooth="yes"/>
      <point x="1720" y="1250" type="line" smooth="yes"/>
      <point x="1713" y="1250"/>
      <point x="1710" y="1247"/>
      <point x="1710" y="1240" type="curve" smooth="yes"/>
    </contour>
    <contour>
      <point x="660" y="1275" type="line"/>
      <point x="660" y="1268"/>
      <point x="663" y="1265"/>
      <point x="670" y="1265" type="curve" smooth="yes"/>
      <point x="815" y="1265" type="line" smooth="yes"/>
      <point x="822" y="1265"/>
      <point x="825" y="1268"/>
      <point x="825" y="1275" type="curve" smooth="yes"/>
      <point x="825" y="1420" type="line" smooth="yes"/>
      <point x="825" y="1427"/>
      <point x="822" y="1430"/>
      <point x="815" y="1430" type="curve" smooth="yes"/>
      <point x="670" y="1430" type="line" smooth="yes"/>
      <point x="663" y="1430"/>
      <point x="660" y="1427"/>
      <point x="660" y="1420" type="curve" smooth="yes"/>
    </contour>
    <contour>
      <point x="210" y="1095" type="line"/>
      <point x="210" y="1088"/>
      <point x="213" y="1085"/>
      <point x="220" y="1085" type="curve" smooth="yes"/>
      <point x="365" y="1085" type="line" smooth="yes"/>
      <point x="372" y="1085"/>
      <point x="375" y="1088"/>
      <point x="375" y="1095" type="curve" smooth="yes"/>
      <point x="375" y="1240" type="line" smooth="yes"/>
      <point x="375" y="1247"/>
      <point x="372" y="1250"/>
      <point x="365" y="1250" type="curve" smooth="yes"/>
      <point x="220" y="1250" type="line" smooth="yes"/>
      <point x="213" y="1250"/>
      <point x="210" y="1247"/>
      <point x="210" y="1240" type="curve" smooth="yes"/>
    </contour>
    <contour>
      <point x="1560" y="1275" type="line"/>
      <point x="1560" y="1268"/>
      <point x="1563" y="1265"/>
      <point x="1570" y="1265" type="curve" smooth="yes"/>
      <point x="1715" y="1265" type="line" smooth="yes"/>
      <point x="1722" y="1265"/>
      <point x="1725" y="1268"/>
      <point x="1725" y="1275" type="curve" smooth="yes"/>
      <point x="1725" y="1420" type="line" smooth="yes"/>
      <point x="1725" y="1427"/>
      <point x="1722" y="1430"/>
      <point x="1715" y="1430" type="curve" smooth="yes"/>
      <point x="1570" y="1430" type="line" smooth="yes"/>
      <point x="1563" y="1430"/>
      <point x="1560" y="1427"/>
      <point x="1560" y="1420" type="curve" smooth="yes"/>
    </contour>
    <contour>
      <point x="1260" y="1275" type="line"/>
      <point x="1260" y="1268"/>
      <point x="1263" y="1265"/>
      <point x="1270" y="1265" type="curve" smooth="yes"/>
      <point x="1415" y="1265" type="line" smooth="yes"/>
      <point x="1422" y="1265"/>
      <point x="1425" y="1268"/>
      <point x="1425" y="1275" type="curve" smooth="yes"/>
      <point x="1425" y="1420" type="line" smooth="yes"/>
      <point x="1425" y="1427"/>
      <point x="1422" y="1430"/>
      <point x="1415" y="1430" type="curve" smooth="yes"/>
      <point x="1270" y="1430" type="line" smooth="yes"/>
      <point x="1263" y="1430"/>
      <point x="1260" y="1427"/>
      <point x="1260" y="1420" type="curve" smooth="yes"/>
    </contour>
    <contour>
      <point x="1410" y="1095" type="line"/>
      <point x="1410" y="1088"/>
      <point x="1413" y="1085"/>
      <point x="1420" y="1085" type="curve" smooth="yes"/>
      <point x="1565" y="1085" type="line" smooth="yes"/>
      <point x="1572" y="1085"/>
      <point x="1575" y="1088"/>
      <point x="1575" y="1095" type="curve" smooth="yes"/>
      <point x="1575" y="1240" type="line" smooth="yes"/>
      <point x="1575" y="1247"/>
      <point x="1572" y="1250"/>
      <point x="1565" y="1250" type="curve" smooth="yes"/>
      <point x="1420" y="1250" type="line" smooth="yes"/>
      <point x="1413" y="1250"/>
      <point x="1410" y="1247"/>
      <point x="1410" y="1240" type="curve" smooth="yes"/>
    </contour>
    <contour>
      <point x="510" y="1095" type="line"/>
      <point x="510" y="1088"/>
      <point x="513" y="1085"/>
      <point x="520" y="1085" type="curve" smooth="yes"/>
      <point x="665" y="1085" type="line" smooth="yes"/>
      <point x="672" y="1085"/>
      <point x="675" y="1088"/>
      <point x="675" y="1095" type="curve" smooth="yes"/>
      <point x="675" y="1240" type="line" smooth="yes"/>
      <point x="675" y="1247"/>
      <point x="672" y="1250"/>
      <point x="665" y="1250" type="curve" smooth="yes"/>
      <point x="520" y="1250" type="line" smooth="yes"/>
      <point x="513" y="1250"/>
      <point x="510" y="1247"/>
      <point x="510" y="1240" type="curve" smooth="yes"/>
    </contour>
    <contour>
      <point x="360" y="1275" type="line"/>
      <point x="360" y="1268"/>
      <point x="363" y="1265"/>
      <point x="370" y="1265" type="curve" smooth="yes"/>
      <point x="515" y="1265" type="line" smooth="yes"/>
      <point x="522" y="1265"/>
      <point x="525" y="1268"/>
      <point x="525" y="1275" type="curve" smooth="yes"/>
      <point x="525" y="1420" type="line" smooth="yes"/>
      <point x="525" y="1427"/>
      <point x="522" y="1430"/>
      <point x="515" y="1430" type="curve" smooth="yes"/>
      <point x="370" y="1430" type="line" smooth="yes"/>
      <point x="363" y="1430"/>
      <point x="360" y="1427"/>
      <point x="360" y="1420" type="curve" smooth="yes"/>
    </contour>
    <contour>
      <point x="1710" y="1465" type="line"/>
      <point x="1710" y="1458"/>
      <point x="1713" y="1455"/>
      <point x="1720" y="1455" type="curve" smooth="yes"/>
      <point x="1865" y="1455" type="line" smooth="yes"/>
      <point x="1872" y="1455"/>
      <point x="1875" y="1458"/>
      <point x="1875" y="1465" type="curve" smooth="yes"/>
      <point x="1875" y="1610" type="line" smooth="yes"/>
      <point x="1875" y="1617"/>
      <point x="1872" y="1620"/>
      <point x="1865" y="1620" type="curve" smooth="yes"/>
      <point x="1720" y="1620" type="line" smooth="yes"/>
      <point x="1713" y="1620"/>
      <point x="1710" y="1617"/>
      <point x="1710" y="1610" type="curve" smooth="yes"/>
    </contour>
    <contour>
      <point x="1410" y="1465" type="line"/>
      <point x="1410" y="1458"/>
      <point x="1413" y="1455"/>
      <point x="1420" y="1455" type="curve" smooth="yes"/>
      <point x="1565" y="1455" type="line" smooth="yes"/>
      <point x="1572" y="1455"/>
      <point x="1575" y="1458"/>
      <point x="1575" y="1465" type="curve" smooth="yes"/>
      <point x="1575" y="1610" type="line" smooth="yes"/>
      <point x="1575" y="1617"/>
      <point x="1572" y="1620"/>
      <point x="1565" y="1620" type="curve" smooth="yes"/>
      <point x="1420" y="1620" type="line" smooth="yes"/>
      <point x="1413" y="1620"/>
      <point x="1410" y="1617"/>
      <point x="1410" y="1610" type="curve" smooth="yes"/>
    </contour>
    <contour>
      <point x="1110" y="1465" type="line"/>
      <point x="1110" y="1458"/>
      <point x="1113" y="1455"/>
      <point x="1120" y="1455" type="curve" smooth="yes"/>
      <point x="1265" y="1455" type="line" smooth="yes"/>
      <point x="1272" y="1455"/>
      <point x="1275" y="1458"/>
      <point x="1275" y="1465" type="curve" smooth="yes"/>
      <point x="1275" y="1610" type="line" smooth="yes"/>
      <point x="1275" y="1617"/>
      <point x="1272" y="1620"/>
      <point x="1265" y="1620" type="curve" smooth="yes"/>
      <point x="1120" y="1620" type="line" smooth="yes"/>
      <point x="1113" y="1620"/>
      <point x="1110" y="1617"/>
      <point x="1110" y="1610" type="curve" smooth="yes"/>
    </contour>
    <contour>
      <point x="810" y="1465" type="line"/>
      <point x="810" y="1458"/>
      <point x="813" y="1455"/>
      <point x="820" y="1455" type="curve" smooth="yes"/>
      <point x="965" y="1455" type="line" smooth="yes"/>
      <point x="972" y="1455"/>
      <point x="975" y="1458"/>
      <point x="975" y="1465" type="curve" smooth="yes"/>
      <point x="975" y="1610" type="line" smooth="yes"/>
      <point x="975" y="1617"/>
      <point x="972" y="1620"/>
      <point x="965" y="1620" type="curve" smooth="yes"/>
      <point x="820" y="1620" type="line" smooth="yes"/>
      <point x="813" y="1620"/>
      <point x="810" y="1617"/>
      <point x="810" y="1610" type="curve" smooth="yes"/>
    </contour>
    <contour>
      <point x="510" y="1465" type="line"/>
      <point x="510" y="1458"/>
      <point x="513" y="1455"/>
      <point x="520" y="1455" type="curve" smooth="yes"/>
      <point x="665" y="1455" type="line" smooth="yes"/>
      <point x="672" y="1455"/>
      <point x="675" y="1458"/>
      <point x="675" y="1465" type="curve" smooth="yes"/>
      <point x="675" y="1610" type="line" smooth="yes"/>
      <point x="675" y="1617"/>
      <point x="672" y="1620"/>
      <point x="665" y="1620" type="curve" smooth="yes"/>
      <point x="520" y="1620" type="line" smooth="yes"/>
      <point x="513" y="1620"/>
      <point x="510" y="1617"/>
      <point x="510" y="1610" type="curve" smooth="yes"/>
    </contour>
    <contour>
      <point x="210" y="1465" type="line"/>
      <point x="210" y="1458"/>
      <point x="213" y="1455"/>
      <point x="220" y="1455" type="curve" smooth="yes"/>
      <point x="365" y="1455" type="line" smooth="yes"/>
      <point x="372" y="1455"/>
      <point x="375" y="1458"/>
      <point x="375" y="1465" type="curve" smooth="yes"/>
      <point x="375" y="1610" type="line" smooth="yes"/>
      <point x="375" y="1617"/>
      <point x="372" y="1620"/>
      <point x="365" y="1620" type="curve" smooth="yes"/>
      <point x="220" y="1620" type="line" smooth="yes"/>
      <point x="213" y="1620"/>
      <point x="210" y="1617"/>
      <point x="210" y="1610" type="curve" smooth="yes"/>
    </contour>
    <contour>
      <point x="960" y="1275" type="line"/>
      <point x="960" y="1268"/>
      <point x="963" y="1265"/>
      <point x="970" y="1265" type="curve" smooth="yes"/>
      <point x="1115" y="1265" type="line" smooth="yes"/>
      <point x="1122" y="1265"/>
      <point x="1125" y="1268"/>
      <point x="1125" y="1275" type="curve" smooth="yes"/>
      <point x="1125" y="1420" type="line" smooth="yes"/>
      <point x="1125" y="1427"/>
      <point x="1122" y="1430"/>
      <point x="1115" y="1430" type="curve" smooth="yes"/>
      <point x="970" y="1430" type="line" smooth="yes"/>
      <point x="963" y="1430"/>
      <point x="960" y="1427"/>
      <point x="960" y="1420" type="curve" smooth="yes"/>
    </contour>
    <contour>
      <point x="1576" y="858" type="line"/>
      <point x="1583" y="858"/>
      <point x="1586" y="861"/>
      <point x="1586" y="868" type="curve" smooth="yes"/>
      <point x="1586" y="1057" type="line" smooth="yes"/>
      <point x="1586" y="1064"/>
      <point x="1583" y="1067"/>
      <point x="1576" y="1067" type="curve" smooth="yes"/>
      <point x="500" y="1067" type="line" smooth="yes"/>
      <point x="493" y="1067"/>
      <point x="490" y="1064"/>
      <point x="490" y="1057" type="curve" smooth="yes"/>
      <point x="490" y="868" type="line" smooth="yes"/>
      <point x="490" y="861"/>
      <point x="493" y="858"/>
      <point x="500" y="858" type="curve" smooth="yes"/>
    </contour>
    <contour>
      <point x="1853" y="1704" type="line"/>
      <point x="1944" y="1704"/>
      <point x="1998" y="1696"/>
      <point x="2013" y="1681" type="curve" smooth="yes"/>
      <point x="2028" y="1666"/>
      <point x="2035" y="1613"/>
      <point x="2035" y="1521" type="curve" smooth="yes"/>
      <point x="2035" y="960" type="line" smooth="yes"/>
      <point x="2035" y="867"/>
      <point x="2028" y="813"/>
      <point x="2013" y="798" type="curve" smooth="yes"/>
      <point x="1999" y="783"/>
      <point x="1946" y="776"/>
      <point x="1853" y="776" type="curve" smooth="yes"/>
      <point x="224" y="776" type="line" smooth="yes"/>
      <point x="131" y="776"/>
      <point x="78" y="783"/>
      <point x="63" y="798" type="curve" smooth="yes"/>
      <point x="48" y="813"/>
      <point x="41" y="867"/>
      <point x="41" y="960" type="curve" smooth="yes"/>
      <point x="41" y="1521" type="line" smooth="yes"/>
      <point x="41" y="1613"/>
      <point x="48" y="1666"/>
      <point x="63" y="1681" type="curve" smooth="yes"/>
      <point x="78" y="1696"/>
      <point x="132" y="1704"/>
      <point x="224" y="1704" type="curve" smooth="yes"/>
    </contour>
    <contour>
      <point x="202" y="1846" type="line"/>
      <point x="58" y="1846"/>
      <point x="-29" y="1826"/>
      <point x="-59" y="1787" type="curve" smooth="yes"/>
      <point x="-88" y="1750"/>
      <point x="-102" y="1662"/>
      <point x="-102" y="1521" type="curve" smooth="yes"/>
      <point x="-102" y="958" type="line" smooth="yes"/>
      <point x="-102" y="816"/>
      <point x="-83" y="726"/>
      <point x="-45" y="688" type="curve" smooth="yes"/>
      <point x="-8" y="651"/>
      <point x="82" y="632"/>
      <point x="224" y="632" type="curve" smooth="yes"/>
      <point x="1853" y="632" type="line" smooth="yes"/>
      <point x="2000" y="632"/>
      <point x="2091" y="649"/>
      <point x="2126" y="684" type="curve" smooth="yes"/>
      <point x="2161" y="719"/>
      <point x="2179" y="811"/>
      <point x="2179" y="958" type="curve" smooth="yes"/>
      <point x="2179" y="1521" type="line" smooth="yes"/>
      <point x="2179" y="1671"/>
      <point x="2162" y="1763"/>
      <point x="2129" y="1796" type="curve" smooth="yes"/>
      <point x="2096" y="1829"/>
      <point x="2004" y="1846"/>
      <point x="1853" y="1846" type="curve" smooth="yes"/>
    </contour>
    <contour>
      <point x="947" y="-441" type="line"/>
      <point x="971" y="-465"/>
      <point x="1000" y="-477"/>
      <point x="1033" y="-477" type="curve" smooth="yes"/>
      <point x="1066" y="-477"/>
      <point x="1093" y="-467"/>
      <point x="1119" y="-441" type="curve" smooth="yes"/>
      <point x="1569" y="9" type="line" smooth="yes"/>
      <point x="1593" y="33"/>
      <point x="1605" y="61"/>
      <point x="1605" y="94" type="curve" smooth="yes"/>
      <point x="1605" y="165"/>
      <point x="1546" y="216"/>
      <point x="1484" y="216" type="curve" smooth="yes"/>
      <point x="1236" y="216" type="line"/>
      <point x="1236" y="456" type="line" smooth="yes"/>
      <point x="1236" y="523"/>
      <point x="1182" y="577"/>
      <point x="1114" y="577" type="curve" smooth="yes"/>
      <point x="952" y="577" type="line" smooth="yes"/>
      <point x="885" y="577"/>
      <point x="831" y="523"/>
      <point x="831" y="456" type="curve" smooth="yes"/>
      <point x="831" y="216" type="line"/>
      <point x="583" y="216" type="line" smooth="yes"/>
      <point x="519" y="216"/>
      <point x="460" y="162"/>
      <point x="460" y="94" type="curve" smooth="yes"/>
      <point x="460" y="62"/>
      <point x="473" y="33"/>
      <point x="497" y="9" type="curve" smooth="yes"/>
    </contour>
    <contour>
      <point x="963" y="445" type="line"/>
      <point x="1103" y="445" type="line"/>
      <point x="1103" y="95" type="line" smooth="yes"/>
      <point x="1103" y="88"/>
      <point x="1107" y="84"/>
      <point x="1114" y="84" type="curve" smooth="yes"/>
      <point x="1457" y="84" type="line"/>
      <point x="1033" y="-340" type="line"/>
      <point x="609" y="84" type="line"/>
      <point x="952" y="84" type="line" smooth="yes"/>
      <point x="959" y="84"/>
      <point x="963" y="88"/>
      <point x="963" y="95" type="curve" smooth="yes"/>
      <point x="963" y="150" type="line"/>
    </contour>
  </outline>
</glyph>
<glyph name="globe" format="2">
  <advance width="2081"/>
  <unicode hex="E00B"/>
  <outline>
    <contour>
      <point x="1038" y="-360" type="curve" smooth="yes"/>
      <point x="1369" y="-360"/>
      <point x="1668" y="-246"/>
      <point x="1897" y="-25" type="curve"/>
      <point x="2009" y="79"/>
      <point x="2093" y="200"/>
      <point x="2154" y="337" type="curve" smooth="yes"/>
      <point x="2218" y="481"/>
      <point x="2246" y="630"/>
      <point x="2247" y="787" type="curve"/>
      <point x="2247" y="1103"/>
      <point x="2122" y="1394"/>
      <point x="1897" y="1611" type="curve" smooth="yes"/>
      <point x="1669" y="1831"/>
      <point x="1367" y="1949"/>
      <point x="1038" y="1949" type="curve" smooth="yes"/>
      <point x="711" y="1949"/>
      <point x="414" y="1832"/>
      <point x="187" y="1611" type="curve" smooth="yes"/>
      <point x="-37" y="1392"/>
      <point x="-161" y="1103"/>
      <point x="-161" y="787" type="curve" smooth="yes"/>
      <point x="-161" y="630"/>
      <point x="-133" y="482"/>
      <point x="-69" y="337" type="curve" smooth="yes"/>
      <point x="-8" y="199"/>
      <point x="77" y="78"/>
      <point x="187" y="-25" type="curve"/>
      <point x="298" y="-132"/>
      <point x="426" y="-214"/>
      <point x="569" y="-272" type="curve" smooth="yes"/>
      <point x="718" y="-332"/>
      <point x="871" y="-360"/>
    </contour>
    <contour>
      <point x="895" y="-214" type="curve"/>
      <point x="795" y="-82"/>
      <point x="719" y="44"/>
      <point x="666" y="180" type="curve"/>
      <point x="766" y="217"/>
      <point x="871" y="236"/>
      <point x="968" y="239" type="curve"/>
      <point x="968" y="-220" type="line"/>
      <point x="941" y="-220"/>
      <point x="918" y="-219"/>
    </contour>
    <contour>
      <point x="1112" y="239" type="line"/>
      <point x="1200" y="236"/>
      <point x="1301" y="217"/>
      <point x="1425" y="180" type="curve"/>
      <point x="1361" y="36"/>
      <point x="1283" y="-96"/>
      <point x="1191" y="-213" type="curve"/>
      <point x="1162" y="-220"/>
      <point x="1137" y="-220"/>
      <point x="1112" y="-220" type="curve"/>
    </contour>
    <contour>
      <point x="1546" y="126" type="curve"/>
      <point x="1627" y="93"/>
      <point x="1691" y="55"/>
      <point x="1744" y="23" type="curve"/>
      <point x="1641" y="-63"/>
      <point x="1522" y="-126"/>
      <point x="1389" y="-167" type="curve"/>
      <point x="1449" y="-75"/>
      <point x="1507" y="22"/>
    </contour>
    <contour>
      <point x="340" y="23" type="curve"/>
      <point x="408" y="63"/>
      <point x="470" y="97"/>
      <point x="534" y="126" type="curve"/>
      <point x="573" y="30"/>
      <point x="621" y="-59"/>
      <point x="697" y="-167" type="curve"/>
      <point x="566" y="-128"/>
      <point x="447" y="-64"/>
    </contour>
    <contour>
      <point x="1600" y="250" type="curve"/>
      <point x="1664" y="417"/>
      <point x="1703" y="582"/>
      <point x="1714" y="723" type="curve"/>
      <point x="2091" y="723" type="line"/>
      <point x="2076" y="484"/>
      <point x="1992" y="283"/>
      <point x="1844" y="126" type="curve"/>
      <point x="1791" y="163"/>
      <point x="1729" y="190"/>
      <point x="1657" y="223" type="curve" smooth="yes"/>
      <point x="1638" y="232"/>
      <point x="1619" y="239"/>
    </contour>
    <contour>
      <point x="372" y="723" type="line"/>
      <point x="379" y="571"/>
      <point x="417" y="406"/>
      <point x="485" y="250" type="curve"/>
      <point x="388" y="204"/>
      <point x="308" y="175"/>
      <point x="244" y="127" type="curve"/>
      <point x="95" y="284"/>
      <point x="8" y="484"/>
      <point x="-7" y="723" type="curve"/>
    </contour>
    <contour>
      <point x="968" y="723" type="line"/>
      <point x="968" y="381" type="line"/>
      <point x="851" y="370"/>
      <point x="729" y="341"/>
      <point x="616" y="298" type="curve"/>
      <point x="557" y="443"/>
      <point x="524" y="584"/>
      <point x="516" y="723" type="curve"/>
    </contour>
    <contour>
      <point x="1112" y="723" type="line"/>
      <point x="1567" y="723" type="line"/>
      <point x="1564" y="603"/>
      <point x="1533" y="474"/>
      <point x="1470" y="298" type="curve"/>
      <point x="1353" y="341"/>
      <point x="1229" y="370"/>
      <point x="1112" y="381" type="curve"/>
    </contour>
    <contour>
      <point x="1714" y="859" type="line"/>
      <point x="1705" y="1000"/>
      <point x="1667" y="1159"/>
      <point x="1600" y="1335" type="curve"/>
      <point x="1700" y="1375"/>
      <point x="1780" y="1416"/>
      <point x="1844" y="1463" type="curve"/>
      <point x="1992" y="1294"/>
      <point x="2076" y="1092"/>
      <point x="2091" y="859" type="curve"/>
    </contour>
    <contour>
      <point x="1112" y="859" type="line"/>
      <point x="1112" y="1206" type="line"/>
      <point x="1213" y="1212"/>
      <point x="1332" y="1240"/>
      <point x="1470" y="1289" type="curve"/>
      <point x="1513" y="1168"/>
      <point x="1562" y="1016"/>
      <point x="1567" y="859" type="curve"/>
    </contour>
    <contour>
      <point x="516" y="859" type="line"/>
      <point x="523" y="1000"/>
      <point x="557" y="1144"/>
      <point x="616" y="1290" type="curve"/>
      <point x="745" y="1241"/>
      <point x="868" y="1213"/>
      <point x="968" y="1206" type="curve"/>
      <point x="968" y="859" type="line"/>
    </contour>
    <contour>
      <point x="-7" y="859" type="line"/>
      <point x="8" y="1092"/>
      <point x="95" y="1295"/>
      <point x="244" y="1463" type="curve"/>
      <point x="305" y="1416"/>
      <point x="385" y="1375"/>
      <point x="485" y="1335" type="curve"/>
      <point x="413" y="1142"/>
      <point x="379" y="991"/>
      <point x="372" y="859" type="curve"/>
    </contour>
    <contour>
      <point x="1112" y="1811" type="line"/>
      <point x="1139" y="1808"/>
      <point x="1163" y="1801"/>
      <point x="1190" y="1793" type="curve"/>
      <point x="1291" y="1661"/>
      <point x="1366" y="1540"/>
      <point x="1425" y="1408" type="curve"/>
      <point x="1324" y="1375"/>
      <point x="1220" y="1352"/>
      <point x="1112" y="1341" type="curve"/>
    </contour>
    <contour>
      <point x="657" y="1408" type="curve"/>
      <point x="717" y="1537"/>
      <point x="792" y="1661"/>
      <point x="896" y="1794" type="curve"/>
      <point x="921" y="1803"/>
      <point x="944" y="1808"/>
      <point x="968" y="1811" type="curve"/>
      <point x="968" y="1341" type="line"/>
      <point x="860" y="1353"/>
      <point x="757" y="1376"/>
    </contour>
    <contour>
      <point x="339" y="1557" type="curve"/>
      <point x="456" y="1652"/>
      <point x="574" y="1718"/>
      <point x="694" y="1755" type="curve"/>
      <point x="630" y="1663"/>
      <point x="575" y="1564"/>
      <point x="534" y="1460" type="curve"/>
      <point x="461" y="1485"/>
      <point x="403" y="1514"/>
    </contour>
    <contour>
      <point x="1393" y="1755" type="curve"/>
      <point x="1514" y="1715"/>
      <point x="1636" y="1646"/>
      <point x="1744" y="1557" type="curve"/>
      <point x="1693" y="1522"/>
      <point x="1630" y="1490"/>
      <point x="1553" y="1461" type="curve"/>
      <point x="1510" y="1562"/>
      <point x="1457" y="1663"/>
    </contour>
  </outline>
</glyph>
<glyph name="uppercase" format="1">
  <advance width="2459"/>
  <unicode hex="E010"/>
  <outline>
    <contour>
      <point x="235" y="1033" type="line"/>
      <point x="246" y="1060"/>
      <point x="256" y="1082"/>
      <point x="265" y="1111" type="curve"/>
      <point x="271" y="1094" type="line" smooth="yes"/>
      <point x="279" y="1071"/>
      <point x="286" y="1054"/>
      <point x="294" y="1033" type="curve" smooth="yes"/>
      <point x="417" y="699" type="line"/>
      <point x="113" y="699" type="line"/>
    </contour>
    <contour>
      <point x="1484" y="1029" type="curve" smooth="yes"/>
      <point x="1484" y="934"/>
      <point x="1420" y="882"/>
      <point x="1312" y="882" type="curve" smooth="yes"/>
      <point x="1036" y="882" type="line"/>
      <point x="1036" y="1183" type="line"/>
      <point x="1319" y="1183" type="line" smooth="yes"/>
      <point x="1415" y="1183"/>
      <point x="1484" y="1125"/>
    </contour>
    <contour>
      <point x="1519" y="556" type="curve" smooth="yes"/>
      <point x="1519" y="459"/>
      <point x="1439" y="388"/>
      <point x="1342" y="388" type="curve" smooth="yes"/>
      <point x="1036" y="388" type="line"/>
      <point x="1036" y="727" type="line"/>
      <point x="1330" y="727" type="line" smooth="yes"/>
      <point x="1454" y="727"/>
      <point x="1519" y="669"/>
    </contour>
    <contour>
      <point x="2707" y="1018" type="line"/>
      <point x="2718" y="1020"/>
      <point x="2723" y="1026"/>
      <point x="2723" y="1037" type="curve" smooth="yes"/>
      <point x="2723" y="1040"/>
      <point x="2723" y="1042"/>
      <point x="2722" y="1043" type="curve"/>
      <point x="2663" y="1253"/>
      <point x="2526" y="1358"/>
      <point x="2312" y="1358" type="curve" smooth="yes"/>
      <point x="2300" y="1358" type="line" smooth="yes"/>
      <point x="1967" y="1353"/>
      <point x="1799" y="1169"/>
      <point x="1795" y="808" type="curve" smooth="yes"/>
      <point x="1795" y="795" type="line" smooth="yes"/>
      <point x="1795" y="430"/>
      <point x="1961" y="247"/>
      <point x="2293" y="246" type="curve" smooth="yes"/>
      <point x="2296" y="246" type="line" smooth="yes"/>
      <point x="2536" y="246"/>
      <point x="2676" y="362"/>
      <point x="2723" y="594" type="curve"/>
      <point x="2723" y="598" type="line" smooth="yes"/>
      <point x="2723" y="609"/>
      <point x="2718" y="616"/>
      <point x="2707" y="618" type="curve" smooth="yes"/>
      <point x="2590" y="641" type="line"/>
      <point x="2579" y="641"/>
      <point x="2572" y="636"/>
      <point x="2569" y="625" type="curve"/>
      <point x="2534" y="460"/>
      <point x="2437" y="379"/>
      <point x="2284" y="376" type="curve"/>
      <point x="2073" y="391"/>
      <point x="1957" y="538"/>
      <point x="1957" y="789" type="curve" smooth="yes"/>
      <point x="1957" y="799" type="line" smooth="yes"/>
      <point x="1960" y="1053"/>
      <point x="2085" y="1201"/>
      <point x="2293" y="1214" type="curve"/>
      <point x="2434" y="1211"/>
      <point x="2529" y="1145"/>
      <point x="2568" y="1009" type="curve" smooth="yes"/>
      <point x="2571" y="999"/>
      <point x="2578" y="994"/>
      <point x="2588" y="994" type="curve" smooth="yes"/>
      <point x="2591" y="994" type="line"/>
    </contour>
    <contour>
      <point x="-76" y="239" type="line"/>
      <point x="-69" y="239"/>
      <point x="-60" y="245"/>
      <point x="-57" y="252" type="curve" smooth="yes"/>
      <point x="60" y="563" type="line"/>
      <point x="468" y="563" type="line"/>
      <point x="585" y="252" type="line" smooth="yes"/>
      <point x="588" y="245"/>
      <point x="597" y="239"/>
      <point x="604" y="239" type="curve" smooth="yes"/>
      <point x="739" y="239" type="line" smooth="yes"/>
      <point x="752" y="239"/>
      <point x="759" y="245"/>
      <point x="759" y="258" type="curve" smooth="yes"/>
      <point x="759" y="261"/>
      <point x="758" y="264"/>
      <point x="756" y="265" type="curve"/>
      <point x="360" y="1319" type="line" smooth="yes"/>
      <point x="357" y="1326"/>
      <point x="348" y="1332"/>
      <point x="341" y="1332" type="curve" smooth="yes"/>
      <point x="188" y="1332" type="line" smooth="yes"/>
      <point x="181" y="1332"/>
      <point x="172" y="1326"/>
      <point x="169" y="1319" type="curve" smooth="yes"/>
      <point x="-228" y="266" type="line" smooth="yes"/>
      <point x="-229" y="264"/>
      <point x="-229" y="261"/>
      <point x="-229" y="258" type="curve" smooth="yes"/>
      <point x="-229" y="245"/>
      <point x="-222" y="239"/>
      <point x="-209" y="239" type="curve" smooth="yes"/>
    </contour>
    <contour>
      <point x="1690" y="558" type="curve" smooth="yes"/>
      <point x="1690" y="685"/>
      <point x="1642" y="755"/>
      <point x="1506" y="819" type="curve"/>
      <point x="1598" y="874"/>
      <point x="1637" y="942"/>
      <point x="1637" y="1042" type="curve" smooth="yes"/>
      <point x="1637" y="1207"/>
      <point x="1487" y="1332"/>
      <point x="1330" y="1332" type="curve" smooth="yes"/>
      <point x="889" y="1332" type="line" smooth="yes"/>
      <point x="878" y="1332"/>
      <point x="869" y="1323"/>
      <point x="869" y="1312" type="curve" smooth="yes"/>
      <point x="869" y="259" type="line" smooth="yes"/>
      <point x="869" y="248"/>
      <point x="878" y="239"/>
      <point x="889" y="239" type="curve" smooth="yes"/>
      <point x="1348" y="239" type="line" smooth="yes"/>
      <point x="1546" y="239"/>
      <point x="1690" y="361"/>
    </contour>
  </outline>
</glyph>
<glyph name="lowercase" format="1">
  <advance width="2459"/>
  <unicode hex="E011"/>
  <outline>
    <contour>
      <point x="435" y="486" type="line"/>
      <point x="426" y="479" type="line" smooth="yes"/>
      <point x="365" y="426"/>
      <point x="304" y="371"/>
      <point x="217" y="371" type="curve" smooth="yes"/>
      <point x="122" y="371"/>
      <point x="74" y="396"/>
      <point x="74" y="446" type="curve" smooth="yes"/>
      <point x="74" y="563"/>
      <point x="168" y="552"/>
      <point x="435" y="613" type="curve"/>
    </contour>
    <contour>
      <point x="1300" y="643" type="curve" smooth="yes"/>
      <point x="1300" y="498"/>
      <point x="1216" y="371"/>
      <point x="1102" y="371" type="curve" smooth="yes"/>
      <point x="993" y="371"/>
      <point x="917" y="494"/>
      <point x="917" y="643" type="curve" smooth="yes"/>
      <point x="917" y="788"/>
      <point x="997" y="928"/>
      <point x="1102" y="928" type="curve" smooth="yes"/>
      <point x="1213" y="928"/>
      <point x="1300" y="796"/>
    </contour>
    <contour>
      <point x="2219" y="537" type="line"/>
      <point x="2198" y="542"/>
      <point x="2143" y="561"/>
      <point x="2126" y="561" type="curve" smooth="yes"/>
      <point x="2118" y="561"/>
      <point x="2110" y="555"/>
      <point x="2107" y="547" type="curve" smooth="yes"/>
      <point x="2067" y="428"/>
      <point x="2001" y="364"/>
      <point x="1909" y="364" type="curve" smooth="yes"/>
      <point x="1789" y="364"/>
      <point x="1699" y="491"/>
      <point x="1699" y="639" type="curve" smooth="yes"/>
      <point x="1699" y="795"/>
      <point x="1786" y="933"/>
      <point x="1903" y="933" type="curve" smooth="yes"/>
      <point x="1989" y="933"/>
      <point x="2042" y="877"/>
      <point x="2103" y="768" type="curve" smooth="yes"/>
      <point x="2107" y="761"/>
      <point x="2113" y="758"/>
      <point x="2120" y="758" type="curve" smooth="yes"/>
      <point x="2125" y="758"/>
      <point x="2130" y="760"/>
      <point x="2134" y="764" type="curve"/>
      <point x="2135" y="763" type="line"/>
      <point x="2153" y="763"/>
      <point x="2221" y="789"/>
      <point x="2221" y="816" type="curve" smooth="yes"/>
      <point x="2221" y="818"/>
      <point x="2221" y="820"/>
      <point x="2220" y="821" type="curve" smooth="yes"/>
      <point x="2161" y="971"/>
      <point x="2035" y="1065"/>
      <point x="1900" y="1065" type="curve" smooth="yes"/>
      <point x="1707" y="1065"/>
      <point x="1567" y="867"/>
      <point x="1567" y="639" type="curve" smooth="yes"/>
      <point x="1567" y="419"/>
      <point x="1711" y="231"/>
      <point x="1906" y="231" type="curve" smooth="yes"/>
      <point x="2066" y="231"/>
      <point x="2180" y="329"/>
      <point x="2233" y="512" type="curve"/>
    </contour>
    <contour>
      <point x="613" y="287" type="line"/>
      <point x="596" y="338"/>
      <point x="585" y="402"/>
      <point x="574" y="503" type="curve"/>
      <point x="574" y="849" type="line" smooth="yes"/>
      <point x="574" y="967"/>
      <point x="435" y="1065"/>
      <point x="289" y="1065" type="curve" smooth="yes"/>
      <point x="141" y="1065"/>
      <point x="-38" y="935"/>
      <point x="-51" y="804" type="curve" smooth="yes"/>
      <point x="-51" y="802" type="line" smooth="yes"/>
      <point x="-51" y="791"/>
      <point x="-44" y="783"/>
      <point x="-33" y="782" type="curve" smooth="yes"/>
      <point x="23" y="777"/>
      <point x="26" y="770"/>
      <point x="52" y="765" type="curve"/>
      <point x="56" y="765" type="line" smooth="yes"/>
      <point x="65" y="765"/>
      <point x="72" y="770"/>
      <point x="75" y="779" type="curve" smooth="yes"/>
      <point x="106" y="879"/>
      <point x="183" y="934"/>
      <point x="287" y="934" type="curve" smooth="yes"/>
      <point x="360" y="934"/>
      <point x="409" y="900"/>
      <point x="441" y="835" type="curve"/>
      <point x="441" y="750" type="line"/>
      <point x="428" y="749"/>
      <point x="414" y="745"/>
      <point x="366" y="734" type="curve"/>
      <point x="366" y="735" type="line"/>
      <point x="354" y="731"/>
      <point x="144" y="689"/>
      <point x="138" y="689" type="curve"/>
      <point x="-1" y="658"/>
      <point x="-64" y="574"/>
      <point x="-64" y="438" type="curve" smooth="yes"/>
      <point x="-64" y="295"/>
      <point x="21" y="231"/>
      <point x="217" y="231" type="curve" smooth="yes"/>
      <point x="312" y="231"/>
      <point x="382" y="256"/>
      <point x="459" y="328" type="curve"/>
      <point x="461" y="316"/>
      <point x="482" y="231"/>
      <point x="507" y="231" type="curve" smooth="yes"/>
      <point x="516" y="231"/>
      <point x="564" y="249"/>
      <point x="588" y="257" type="curve" smooth="yes"/>
      <point x="601" y="261" type="line"/>
    </contour>
    <contour>
      <point x="1439" y="643" type="curve" smooth="yes"/>
      <point x="1439" y="872"/>
      <point x="1293" y="1065"/>
      <point x="1102" y="1065" type="curve" smooth="yes"/>
      <point x="1030" y="1065"/>
      <point x="976" y="1045"/>
      <point x="915" y="993" type="curve"/>
      <point x="915" y="1319" type="line" smooth="yes"/>
      <point x="915" y="1330"/>
      <point x="906" y="1339"/>
      <point x="895" y="1339" type="curve" smooth="yes"/>
      <point x="799" y="1339" type="line" smooth="yes"/>
      <point x="788" y="1339"/>
      <point x="779" y="1330"/>
      <point x="779" y="1319" type="curve" smooth="yes"/>
      <point x="779" y="266" type="line" smooth="yes"/>
      <point x="779" y="255"/>
      <point x="788" y="246"/>
      <point x="799" y="246" type="curve" smooth="yes"/>
      <point x="895" y="246" type="line" smooth="yes"/>
      <point x="906" y="246"/>
      <point x="915" y="255"/>
      <point x="915" y="266" type="curve" smooth="yes"/>
      <point x="915" y="305" type="line"/>
      <point x="975" y="256"/>
      <point x="1030" y="231"/>
      <point x="1102" y="231" type="curve" smooth="yes"/>
      <point x="1295" y="231"/>
      <point x="1439" y="416"/>
    </contour>
  </outline>
</glyph>
<glyph name="digits" format="1">
  <advance width="2459"/>
  <unicode hex="E013"/>
  <outline>
    <contour>
      <point x="420" y="1304" type="line"/>
      <point x="420" y="1315"/>
      <point x="411" y="1324"/>
      <point x="400" y="1324" type="curve" smooth="yes"/>
      <point x="328" y="1324" type="line" smooth="yes"/>
      <point x="321" y="1324"/>
      <point x="313" y="1318"/>
      <point x="310" y="1313" type="curve" smooth="yes"/>
      <point x="265" y="1225"/>
      <point x="106" y="1090"/>
      <point x="14" y="1063" type="curve" smooth="yes"/>
      <point x="6" y="1060"/>
      <point x="0" y="1052"/>
      <point x="0" y="1044" type="curve" smooth="yes"/>
      <point x="0" y="938" type="line" smooth="yes"/>
      <point x="0" y="926"/>
      <point x="8" y="917"/>
      <point x="19" y="917" type="curve" smooth="yes"/>
      <point x="24" y="917"/>
      <point x="33" y="921"/>
      <point x="40" y="924" type="curve" smooth="yes"/>
      <point x="111" y="950"/>
      <point x="120" y="953"/>
      <point x="263" y="1054" type="curve"/>
      <point x="263" y="261" type="line" smooth="yes"/>
      <point x="263" y="250"/>
      <point x="272" y="241"/>
      <point x="283" y="241" type="curve" smooth="yes"/>
      <point x="400" y="241" type="line" smooth="yes"/>
      <point x="411" y="241"/>
      <point x="420" y="250"/>
      <point x="420" y="261" type="curve" smooth="yes"/>
    </contour>
    <contour>
      <point x="2173" y="583" type="line"/>
      <point x="2173" y="687"/>
      <point x="2113" y="771"/>
      <point x="1993" y="836" type="curve"/>
      <point x="2078" y="890"/>
      <point x="2120" y="961"/>
      <point x="2120" y="1048" type="curve" smooth="yes"/>
      <point x="2120" y="1051" type="line" smooth="yes"/>
      <point x="2095" y="1236"/>
      <point x="1988" y="1332"/>
      <point x="1799" y="1339" type="curve" smooth="yes"/>
      <point x="1796" y="1339" type="line" smooth="yes"/>
      <point x="1629" y="1339"/>
      <point x="1522" y="1246"/>
      <point x="1475" y="1060" type="curve"/>
      <point x="1474" y="1059"/>
      <point x="1474" y="1057"/>
      <point x="1474" y="1054" type="curve" smooth="yes"/>
      <point x="1474" y="1030"/>
      <point x="1526" y="1027"/>
      <point x="1545" y="1024" type="curve" smooth="yes"/>
      <point x="1581" y="1017"/>
      <point x="1601" y="1014"/>
      <point x="1604" y="1014" type="curve" smooth="yes"/>
      <point x="1611" y="1014"/>
      <point x="1620" y="1020"/>
      <point x="1623" y="1027" type="curve" smooth="yes"/>
      <point x="1626" y="1034"/>
      <point x="1628" y="1041"/>
      <point x="1631" y="1050" type="curve" smooth="yes"/>
      <point x="1655" y="1118" type="line" smooth="yes"/>
      <point x="1672" y="1169"/>
      <point x="1733" y="1201"/>
      <point x="1808" y="1214" type="curve"/>
      <point x="1908" y="1207"/>
      <point x="1962" y="1156"/>
      <point x="1966" y="1053" type="curve"/>
      <point x="1950" y="940"/>
      <point x="1878" y="883"/>
      <point x="1750" y="882" type="curve" smooth="yes"/>
      <point x="1741" y="882"/>
      <point x="1731" y="874"/>
      <point x="1730" y="865" type="curve" smooth="yes"/>
      <point x="1716" y="773" type="line"/>
      <point x="1716" y="760"/>
      <point x="1722" y="754"/>
      <point x="1735" y="754" type="curve" smooth="yes"/>
      <point x="1738" y="754" type="line" smooth="yes"/>
      <point x="1762" y="757"/>
      <point x="1784" y="758"/>
      <point x="1804" y="758" type="curve" smooth="yes"/>
      <point x="1941" y="758"/>
      <point x="2010" y="694"/>
      <point x="2013" y="565" type="curve"/>
      <point x="2002" y="442"/>
      <point x="1923" y="370"/>
      <point x="1808" y="357" type="curve"/>
      <point x="1704" y="366"/>
      <point x="1630" y="428"/>
      <point x="1597" y="545" type="curve"/>
      <point x="1594" y="553"/>
      <point x="1585" y="560"/>
      <point x="1577" y="560" type="curve" smooth="yes"/>
      <point x="1480" y="555" type="line" smooth="yes"/>
      <point x="1467" y="554"/>
      <point x="1461" y="547"/>
      <point x="1461" y="535" type="curve" smooth="yes"/>
      <point x="1461" y="531" type="line"/>
      <point x="1499" y="333"/>
      <point x="1615" y="233"/>
      <point x="1808" y="232" type="curve"/>
      <point x="2036" y="248"/>
      <point x="2158" y="360"/>
      <point x="2173" y="568" type="curve"/>
    </contour>
    <contour>
      <point x="1394" y="369" type="line"/>
      <point x="1394" y="380"/>
      <point x="1385" y="389"/>
      <point x="1374" y="389" type="curve" smooth="yes"/>
      <point x="886" y="389" type="line"/>
      <point x="921" y="436"/>
      <point x="1010" y="517"/>
      <point x="1158" y="642" type="curve" smooth="yes"/>
      <point x="1157" y="641" type="line" smooth="yes"/>
      <point x="1314" y="757"/>
      <point x="1393" y="882"/>
      <point x="1393" y="1015" type="curve" smooth="yes"/>
      <point x="1393" y="1027" type="line" smooth="yes"/>
      <point x="1385" y="1226"/>
      <point x="1271" y="1330"/>
      <point x="1052" y="1337" type="curve" smooth="yes"/>
      <point x="1046" y="1337" type="line" smooth="yes"/>
      <point x="845" y="1337"/>
      <point x="730" y="1235"/>
      <point x="699" y="1031" type="curve"/>
      <point x="699" y="1012"/>
      <point x="743" y="998"/>
      <point x="832" y="990" type="curve" smooth="yes"/>
      <point x="834" y="990" type="line" smooth="yes"/>
      <point x="845" y="990"/>
      <point x="853" y="997"/>
      <point x="854" y="1008" type="curve" smooth="yes"/>
      <point x="869" y="1135"/>
      <point x="934" y="1203"/>
      <point x="1049" y="1212" type="curve"/>
      <point x="1176" y="1202"/>
      <point x="1240" y="1142"/>
      <point x="1240" y="1032" type="curve" smooth="yes"/>
      <point x="1240" y="932"/>
      <point x="1170" y="831"/>
      <point x="1033" y="723" type="curve" smooth="yes"/>
      <point x="962" y="667"/>
      <point x="888" y="602"/>
      <point x="807" y="529" type="curve"/>
      <point x="719" y="439"/>
      <point x="675" y="351"/>
      <point x="675" y="264" type="curve" smooth="yes"/>
      <point x="675" y="261" type="line" smooth="yes"/>
      <point x="675" y="250"/>
      <point x="684" y="241"/>
      <point x="695" y="241" type="curve" smooth="yes"/>
      <point x="1374" y="241" type="line" smooth="yes"/>
      <point x="1385" y="241"/>
      <point x="1394" y="250"/>
      <point x="1394" y="261" type="curve" smooth="yes"/>
    </contour>
  </outline>
</glyph>
<glyph name="currencies" format="1">
  <advance width="2459"/>
  <unicode hex="E014"/>
  <outline>
    <contour>
      <point x="1396" y="1274" type="line"/>
      <point x="1396" y="1314"/>
      <point x="1209" y="1336"/>
      <point x="1175" y="1336" type="curve" smooth="yes"/>
      <point x="947" y="1336"/>
      <point x="845" y="1221"/>
      <point x="845" y="965" type="curve" smooth="yes"/>
      <point x="845" y="818" type="line"/>
      <point x="726" y="818" type="line" smooth="yes"/>
      <point x="713" y="818"/>
      <point x="707" y="812"/>
      <point x="707" y="799" type="curve" smooth="yes"/>
      <point x="707" y="699" type="line" smooth="yes"/>
      <point x="707" y="688"/>
      <point x="715" y="680"/>
      <point x="726" y="680" type="curve" smooth="yes"/>
      <point x="845" y="680" type="line"/>
      <point x="845" y="395" type="line"/>
      <point x="699" y="395" type="line" smooth="yes"/>
      <point x="688" y="395"/>
      <point x="680" y="387"/>
      <point x="680" y="376" type="curve" smooth="yes"/>
      <point x="680" y="257" type="line" smooth="yes"/>
      <point x="680" y="246"/>
      <point x="688" y="237"/>
      <point x="699" y="237" type="curve" smooth="yes"/>
      <point x="1391" y="237" type="line" smooth="yes"/>
      <point x="1402" y="237"/>
      <point x="1410" y="246"/>
      <point x="1410" y="257" type="curve" smooth="yes"/>
      <point x="1410" y="376" type="line" smooth="yes"/>
      <point x="1410" y="387"/>
      <point x="1402" y="395"/>
      <point x="1391" y="395" type="curve" smooth="yes"/>
      <point x="1022" y="395" type="line"/>
      <point x="1022" y="680" type="line"/>
      <point x="1276" y="680" type="line" smooth="yes"/>
      <point x="1287" y="680"/>
      <point x="1295" y="688"/>
      <point x="1295" y="699" type="curve" smooth="yes"/>
      <point x="1295" y="799" type="line" smooth="yes"/>
      <point x="1295" y="810"/>
      <point x="1287" y="818"/>
      <point x="1276" y="818" type="curve" smooth="yes"/>
      <point x="1022" y="818" type="line"/>
      <point x="1022" y="949" type="line" smooth="yes"/>
      <point x="1022" y="1141"/>
      <point x="1064" y="1186"/>
      <point x="1188" y="1186" type="curve" smooth="yes"/>
      <point x="1241" y="1186"/>
      <point x="1300" y="1167"/>
      <point x="1367" y="1130" type="curve" smooth="yes"/>
      <point x="1369" y="1129"/>
      <point x="1372" y="1128"/>
      <point x="1377" y="1128" type="curve" smooth="yes"/>
      <point x="1388" y="1128"/>
      <point x="1396" y="1136"/>
      <point x="1396" y="1148" type="curve" smooth="yes"/>
    </contour>
    <contour>
      <point x="2314" y="659" type="line"/>
      <point x="2314" y="670"/>
      <point x="2305" y="678"/>
      <point x="2294" y="678" type="curve" smooth="yes"/>
      <point x="2026" y="678" type="line"/>
      <point x="2026" y="687" type="line"/>
      <point x="2043" y="720"/>
      <point x="2059" y="750"/>
      <point x="2078" y="783" type="curve"/>
      <point x="2294" y="783" type="line" smooth="yes"/>
      <point x="2305" y="783"/>
      <point x="2314" y="791"/>
      <point x="2314" y="802" type="curve" smooth="yes"/>
      <point x="2314" y="888" type="line" smooth="yes"/>
      <point x="2314" y="899"/>
      <point x="2305" y="907"/>
      <point x="2294" y="907" type="curve" smooth="yes"/>
      <point x="2144" y="907" type="line"/>
      <point x="2350" y="1287" type="line" smooth="yes"/>
      <point x="2352" y="1290"/>
      <point x="2353" y="1293"/>
      <point x="2353" y="1297" type="curve" smooth="yes"/>
      <point x="2353" y="1308"/>
      <point x="2344" y="1316"/>
      <point x="2333" y="1316" type="curve" smooth="yes"/>
      <point x="2199" y="1316" type="line" smooth="yes"/>
      <point x="2194" y="1316"/>
      <point x="2185" y="1310"/>
      <point x="2182" y="1305" type="curve" smooth="yes"/>
      <point x="2101" y="1154"/>
      <point x="2019" y="1002"/>
      <point x="1936" y="850" type="curve"/>
      <point x="1691" y="1305" type="line" smooth="yes"/>
      <point x="1688" y="1310"/>
      <point x="1680" y="1316"/>
      <point x="1673" y="1316" type="curve" smooth="yes"/>
      <point x="1541" y="1316" type="line" smooth="yes"/>
      <point x="1530" y="1316"/>
      <point x="1521" y="1309"/>
      <point x="1521" y="1298" type="curve" smooth="yes"/>
      <point x="1521" y="1294"/>
      <point x="1522" y="1291"/>
      <point x="1524" y="1288" type="curve" smooth="yes"/>
      <point x="1730" y="907" type="line"/>
      <point x="1578" y="907" type="line" smooth="yes"/>
      <point x="1567" y="907"/>
      <point x="1559" y="899"/>
      <point x="1559" y="888" type="curve" smooth="yes"/>
      <point x="1559" y="802" type="line" smooth="yes"/>
      <point x="1559" y="791"/>
      <point x="1567" y="783"/>
      <point x="1578" y="783" type="curve" smooth="yes"/>
      <point x="1797" y="783" type="line"/>
      <point x="1848" y="687" type="line"/>
      <point x="1848" y="678" type="line"/>
      <point x="1578" y="678" type="line" smooth="yes"/>
      <point x="1567" y="678"/>
      <point x="1559" y="670"/>
      <point x="1559" y="659" type="curve" smooth="yes"/>
      <point x="1559" y="573" type="line" smooth="yes"/>
      <point x="1559" y="562"/>
      <point x="1567" y="554"/>
      <point x="1578" y="554" type="curve" smooth="yes"/>
      <point x="1848" y="554" type="line"/>
      <point x="1848" y="256" type="line" smooth="yes"/>
      <point x="1848" y="245"/>
      <point x="1856" y="237"/>
      <point x="1867" y="237" type="curve" smooth="yes"/>
      <point x="2007" y="237" type="line" smooth="yes"/>
      <point x="2018" y="237"/>
      <point x="2027" y="245"/>
      <point x="2027" y="256" type="curve" smooth="yes"/>
      <point x="2027" y="554" type="line"/>
      <point x="2294" y="554" type="line" smooth="yes"/>
      <point x="2305" y="554"/>
      <point x="2314" y="562"/>
      <point x="2314" y="573" type="curve" smooth="yes"/>
    </contour>
    <contour>
      <point x="573" y="1235" type="line"/>
      <point x="573" y="1239" type="line" smooth="yes"/>
      <point x="573" y="1246"/>
      <point x="569" y="1270"/>
      <point x="564" y="1273" type="curve" smooth="yes"/>
      <point x="492" y="1313"/>
      <point x="412" y="1333"/>
      <point x="331" y="1333" type="curve" smooth="yes"/>
      <point x="103" y="1333"/>
      <point x="-124" y="1191"/>
      <point x="-153" y="946" type="curve"/>
      <point x="-217" y="946" type="line" smooth="yes"/>
      <point x="-228" y="946"/>
      <point x="-236" y="938"/>
      <point x="-236" y="927" type="curve" smooth="yes"/>
      <point x="-236" y="831" type="line" smooth="yes"/>
      <point x="-236" y="822"/>
      <point x="-228" y="813"/>
      <point x="-219" y="813" type="curve" smooth="yes"/>
      <point x="-163" y="813" type="line"/>
      <point x="-163" y="760" type="line"/>
      <point x="-217" y="760" type="line" smooth="yes"/>
      <point x="-228" y="760"/>
      <point x="-236" y="752"/>
      <point x="-236" y="741" type="curve" smooth="yes"/>
      <point x="-236" y="648" type="line" smooth="yes"/>
      <point x="-236" y="637"/>
      <point x="-228" y="629"/>
      <point x="-217" y="629" type="curve" smooth="yes"/>
      <point x="-147" y="629" type="line"/>
      <point x="-123" y="383"/>
      <point x="92" y="237"/>
      <point x="326" y="237" type="curve" smooth="yes"/>
      <point x="375" y="237"/>
      <point x="545" y="257"/>
      <point x="545" y="299" type="curve" smooth="yes"/>
      <point x="545" y="441" type="line" smooth="yes"/>
      <point x="545" y="453"/>
      <point x="536" y="460"/>
      <point x="527" y="460" type="curve" smooth="yes"/>
      <point x="522" y="460"/>
      <point x="517" y="458"/>
      <point x="514" y="455" type="curve" smooth="yes"/>
      <point x="463" y="412"/>
      <point x="397" y="392"/>
      <point x="328" y="392" type="curve" smooth="yes"/>
      <point x="191" y="392"/>
      <point x="49" y="475"/>
      <point x="30" y="629" type="curve"/>
      <point x="402" y="629" type="line" smooth="yes"/>
      <point x="413" y="629"/>
      <point x="421" y="637"/>
      <point x="422" y="646" type="curve" smooth="yes"/>
      <point x="434" y="742" type="line"/>
      <point x="434" y="753"/>
      <point x="426" y="760"/>
      <point x="415" y="760" type="curve" smooth="yes"/>
      <point x="13" y="760" type="line"/>
      <point x="13" y="813" type="line"/>
      <point x="426" y="813" type="line" smooth="yes"/>
      <point x="437" y="813"/>
      <point x="445" y="820"/>
      <point x="446" y="831" type="curve" smooth="yes"/>
      <point x="457" y="928" type="line"/>
      <point x="457" y="939"/>
      <point x="449" y="946"/>
      <point x="438" y="946" type="curve" smooth="yes"/>
      <point x="28" y="946" type="line"/>
      <point x="55" y="1089"/>
      <point x="191" y="1179"/>
      <point x="327" y="1179" type="curve" smooth="yes"/>
      <point x="395" y="1179"/>
      <point x="458" y="1158"/>
      <point x="514" y="1113" type="curve" smooth="yes"/>
      <point x="518" y="1109"/>
      <point x="524" y="1108"/>
      <point x="528" y="1108" type="curve" smooth="yes"/>
      <point x="537" y="1108"/>
      <point x="543" y="1113"/>
      <point x="545" y="1123" type="curve" smooth="yes"/>
    </contour>
  </outline>
</glyph>
<glyph name="symbols" format="2">
  <advance width="2459"/>
  <unicode hex="E015"/>
  <outline>
    <contour>
      <point x="1902" y="1324" type="line"/>
      <point x="1902" y="1335"/>
      <point x="1893" y="1344"/>
      <point x="1882" y="1344" type="curve" smooth="yes"/>
      <point x="1738" y="1344" type="line" smooth="yes"/>
      <point x="1727" y="1344"/>
      <point x="1718" y="1335"/>
      <point x="1718" y="1324" type="curve" smooth="yes"/>
      <point x="1718" y="1144" type="line" smooth="yes"/>
      <point x="1718" y="1133"/>
      <point x="1727" y="1124"/>
      <point x="1738" y="1124" type="curve" smooth="yes"/>
      <point x="1882" y="1124" type="line" smooth="yes"/>
      <point x="1893" y="1124"/>
      <point x="1902" y="1133"/>
      <point x="1902" y="1144" type="curve" smooth="yes"/>
    </contour>
    <contour>
      <point x="1242" y="1324" type="line"/>
      <point x="1242" y="1335"/>
      <point x="1233" y="1344"/>
      <point x="1222" y="1344" type="curve" smooth="yes"/>
      <point x="1078" y="1344" type="line" smooth="yes"/>
      <point x="1067" y="1344"/>
      <point x="1058" y="1335"/>
      <point x="1058" y="1324" type="curve" smooth="yes"/>
      <point x="1058" y="1144" type="line" smooth="yes"/>
      <point x="1058" y="1133"/>
      <point x="1067" y="1124"/>
      <point x="1078" y="1124" type="curve" smooth="yes"/>
      <point x="1222" y="1124" type="line" smooth="yes"/>
      <point x="1233" y="1124"/>
      <point x="1242" y="1133"/>
      <point x="1242" y="1144" type="curve" smooth="yes"/>
    </contour>
    <contour>
      <point x="622" y="872" type="line"/>
      <point x="622" y="884"/>
      <point x="614" y="893"/>
      <point x="603" y="893" type="curve" smooth="yes"/>
      <point x="598" y="893"/>
      <point x="592" y="890"/>
      <point x="587" y="885" type="curve" smooth="yes"/>
      <point x="544" y="836"/>
      <point x="477" y="798"/>
      <point x="431" y="798" type="curve" smooth="yes"/>
      <point x="344" y="798"/>
      <point x="187" y="906"/>
      <point x="87" y="906" type="curve" smooth="yes"/>
      <point x="-30" y="906"/>
      <point x="-119" y="833"/>
      <point x="-119" y="797" type="curve" smooth="yes"/>
      <point x="-119" y="675" type="line" smooth="yes"/>
      <point x="-119" y="662"/>
      <point x="-111" y="654"/>
      <point x="-100" y="654" type="curve" smooth="yes"/>
      <point x="-94" y="654"/>
      <point x="-89" y="656"/>
      <point x="-85" y="661" type="curve" smooth="yes"/>
      <point x="-21" y="726"/>
      <point x="20" y="748"/>
      <point x="72" y="748" type="curve" smooth="yes"/>
      <point x="127" y="748"/>
      <point x="177" y="724"/>
      <point x="229" y="697" type="curve"/>
      <point x="286" y="669"/>
      <point x="343" y="640"/>
      <point x="411" y="640" type="curve" smooth="yes"/>
      <point x="509" y="640"/>
      <point x="547" y="656"/>
      <point x="616" y="725" type="curve" smooth="yes"/>
      <point x="619" y="728"/>
      <point x="622" y="736"/>
      <point x="622" y="739" type="curve" smooth="yes"/>
    </contour>
    <contour>
      <point x="1902" y="731" type="line"/>
      <point x="1888" y="984" type="line" smooth="yes"/>
      <point x="1887" y="997"/>
      <point x="1880" y="1003"/>
      <point x="1868" y="1003" type="curve" smooth="yes"/>
      <point x="1753" y="1003" type="line" smooth="yes"/>
      <point x="1742" y="1003"/>
      <point x="1734" y="995"/>
      <point x="1733" y="984" type="curve" smooth="yes"/>
      <point x="1718" y="731" type="line"/>
      <point x="1718" y="267" type="line" smooth="yes"/>
      <point x="1718" y="256"/>
      <point x="1727" y="247"/>
      <point x="1738" y="247" type="curve" smooth="yes"/>
      <point x="1882" y="247" type="line" smooth="yes"/>
      <point x="1893" y="247"/>
      <point x="1902" y="256"/>
      <point x="1902" y="267" type="curve" smooth="yes"/>
    </contour>
    <contour>
      <point x="1063" y="952" type="line"/>
      <point x="1063" y="904"/>
      <point x="1059" y="881"/>
      <point x="1055" y="862" type="curve"/>
      <point x="1055" y="863" type="line"/>
      <point x="1048" y="842"/>
      <point x="1038" y="823"/>
      <point x="994" y="782" type="curve" smooth="yes"/>
      <point x="931" y="722" type="line" smooth="yes"/>
      <point x="844" y="638"/>
      <point x="811" y="573"/>
      <point x="811" y="496" type="curve" smooth="yes"/>
      <point x="811" y="336"/>
      <point x="936" y="227"/>
      <point x="1120" y="227" type="curve" smooth="yes"/>
      <point x="1219" y="227"/>
      <point x="1314" y="254"/>
      <point x="1405" y="309" type="curve" smooth="yes"/>
      <point x="1410" y="312"/>
      <point x="1415" y="321"/>
      <point x="1415" y="326" type="curve" smooth="yes"/>
      <point x="1415" y="459" type="line" smooth="yes"/>
      <point x="1415" y="471"/>
      <point x="1407" y="479"/>
      <point x="1396" y="479" type="curve" smooth="yes"/>
      <point x="1391" y="479"/>
      <point x="1387" y="478"/>
      <point x="1384" y="475" type="curve"/>
      <point x="1296" y="415"/>
      <point x="1216" y="382"/>
      <point x="1145" y="382" type="curve" smooth="yes"/>
      <point x="1053" y="382"/>
      <point x="995" y="431"/>
      <point x="995" y="503" type="curve" smooth="yes"/>
      <point x="995" y="543"/>
      <point x="1016" y="578"/>
      <point x="1065" y="627" type="curve" smooth="yes"/>
      <point x="1129" y="691" type="line" smooth="yes"/>
      <point x="1212" y="774"/>
      <point x="1238" y="828"/>
      <point x="1238" y="930" type="curve" smooth="yes"/>
      <point x="1238" y="1040" type="line" smooth="yes"/>
      <point x="1238" y="1051"/>
      <point x="1229" y="1060"/>
      <point x="1218" y="1060" type="curve" smooth="yes"/>
      <point x="1083" y="1060" type="line" smooth="yes"/>
      <point x="1072" y="1060"/>
      <point x="1063" y="1051"/>
      <point x="1063" y="1040" type="curve" smooth="yes"/>
    </contour>
  </outline>
</glyph>
<glyph name="alt_1" format="2">
  <advance width="2459"/>
  <unicode hex="E019"/>
  <outline>
    <contour>
      <point x="520" y="1033" type="line"/>
      <point x="529" y="1060"/>
      <point x="540" y="1082"/>
      <point x="551" y="1114" type="curve"/>
      <point x="566" y="1086"/>
      <point x="572" y="1058"/>
      <point x="579" y="1033" type="curve"/>
      <point x="702" y="698" type="line"/>
      <point x="398" y="698" type="line"/>
    </contour>
    <contour>
      <point x="1219" y="1312" type="line"/>
      <point x="1219" y="1323"/>
      <point x="1210" y="1332"/>
      <point x="1199" y="1332" type="curve" smooth="yes"/>
      <point x="1106" y="1332" type="line" smooth="yes"/>
      <point x="1095" y="1332"/>
      <point x="1086" y="1323"/>
      <point x="1086" y="1312" type="curve" smooth="yes"/>
      <point x="1086" y="258" type="line" smooth="yes"/>
      <point x="1086" y="247"/>
      <point x="1095" y="238"/>
      <point x="1106" y="238" type="curve" smooth="yes"/>
      <point x="1199" y="238" type="line" smooth="yes"/>
      <point x="1210" y="238"/>
      <point x="1219" y="247"/>
      <point x="1219" y="258" type="curve" smooth="yes"/>
    </contour>
    <contour>
      <point x="1732" y="283" type="line"/>
      <point x="1722" y="308"/>
      <point x="1713" y="338"/>
      <point x="1704" y="373" type="curve" smooth="yes"/>
      <point x="1702" y="383"/>
      <point x="1696" y="388"/>
      <point x="1685" y="388" type="curve" smooth="yes"/>
      <point x="1682" y="388"/>
      <point x="1680" y="388"/>
      <point x="1679" y="387" type="curve"/>
      <point x="1650" y="379"/>
      <point x="1631" y="374"/>
      <point x="1606" y="374" type="curve" smooth="yes"/>
      <point x="1573" y="374"/>
      <point x="1553" y="389"/>
      <point x="1553" y="420" type="curve" smooth="yes"/>
      <point x="1553" y="927" type="line"/>
      <point x="1679" y="927" type="line" smooth="yes"/>
      <point x="1690" y="927"/>
      <point x="1699" y="936"/>
      <point x="1699" y="947" type="curve" smooth="yes"/>
      <point x="1699" y="1039" type="line" smooth="yes"/>
      <point x="1699" y="1050"/>
      <point x="1690" y="1059"/>
      <point x="1679" y="1059" type="curve" smooth="yes"/>
      <point x="1553" y="1059" type="line"/>
      <point x="1553" y="1239" type="line" smooth="yes"/>
      <point x="1553" y="1250"/>
      <point x="1544" y="1259"/>
      <point x="1533" y="1259" type="curve" smooth="yes"/>
      <point x="1440" y="1259" type="line" smooth="yes"/>
      <point x="1429" y="1259"/>
      <point x="1420" y="1250"/>
      <point x="1420" y="1239" type="curve" smooth="yes"/>
      <point x="1420" y="1059" type="line"/>
      <point x="1336" y="1059" type="line" smooth="yes"/>
      <point x="1325" y="1059"/>
      <point x="1316" y="1050"/>
      <point x="1316" y="1039" type="curve" smooth="yes"/>
      <point x="1316" y="947" type="line" smooth="yes"/>
      <point x="1316" y="936"/>
      <point x="1325" y="927"/>
      <point x="1336" y="927" type="curve" smooth="yes"/>
      <point x="1420" y="927" type="line"/>
      <point x="1420" y="409" type="line" smooth="yes"/>
      <point x="1420" y="295"/>
      <point x="1479" y="238"/>
      <point x="1597" y="238" type="curve" smooth="yes"/>
      <point x="1629" y="238"/>
      <point x="1660" y="243"/>
      <point x="1691" y="250" type="curve" smooth="yes"/>
      <point x="1717" y="255" type="line"/>
    </contour>
    <contour>
      <point x="209" y="238" type="line"/>
      <point x="216" y="238"/>
      <point x="225" y="244"/>
      <point x="228" y="251" type="curve" smooth="yes"/>
      <point x="346" y="563" type="line"/>
      <point x="754" y="563" type="line"/>
      <point x="872" y="251" type="line" smooth="yes"/>
      <point x="875" y="244"/>
      <point x="884" y="238"/>
      <point x="891" y="238" type="curve" smooth="yes"/>
      <point x="1025" y="238" type="line" smooth="yes"/>
      <point x="1038" y="238"/>
      <point x="1045" y="244"/>
      <point x="1045" y="257" type="curve" smooth="yes"/>
      <point x="1045" y="260"/>
      <point x="1044" y="263"/>
      <point x="1043" y="264" type="curve" smooth="yes"/>
      <point x="645" y="1319" type="line" smooth="yes"/>
      <point x="642" y="1326"/>
      <point x="633" y="1332"/>
      <point x="626" y="1332" type="curve" smooth="yes"/>
      <point x="474" y="1332" type="line" smooth="yes"/>
      <point x="467" y="1332"/>
      <point x="458" y="1326"/>
      <point x="455" y="1319" type="curve" smooth="yes"/>
      <point x="57" y="265" type="line" smooth="yes"/>
      <point x="56" y="263"/>
      <point x="56" y="260"/>
      <point x="56" y="257" type="curve" smooth="yes"/>
      <point x="56" y="244"/>
      <point x="63" y="238"/>
      <point x="76" y="238" type="curve" smooth="yes"/>
    </contour>
  </outline>
</glyph>
<glyph name="caps_1" format="2">
  <advance width="2095"/>
  <unicode hex="E020"/>
  <outline>
    <contour>
      <point x="998" y="1077" type="line"/>
      <point x="1019" y="1134" type="line"/>
      <point x="1019" y="1133" type="line"/>
      <point x="1026" y="1152"/>
      <point x="1034" y="1170"/>
      <point x="1043" y="1197" type="curve"/>
      <point x="1059" y="1146"/>
      <point x="1063" y="1141"/>
      <point x="1074" y="1112" type="curve" smooth="yes"/>
      <point x="1088" y="1076" type="line"/>
      <point x="1088" y="1077" type="line"/>
      <point x="1228" y="693" type="line"/>
      <point x="858" y="693" type="line"/>
    </contour>
    <contour>
      <point x="668" y="210" type="line"/>
      <point x="673" y="210"/>
      <point x="676" y="212"/>
      <point x="677" y="216" type="curve" smooth="yes"/>
      <point x="810" y="567" type="line"/>
      <point x="1276" y="567" type="line"/>
      <point x="1409" y="216" type="line" smooth="yes"/>
      <point x="1410" y="212"/>
      <point x="1413" y="210"/>
      <point x="1418" y="210" type="curve" smooth="yes"/>
      <point x="1565" y="210" type="line" smooth="yes"/>
      <point x="1572" y="210"/>
      <point x="1575" y="213"/>
      <point x="1575" y="220" type="curve" smooth="yes"/>
      <point x="1575" y="222"/>
      <point x="1575" y="223"/>
      <point x="1574" y="224" type="curve" smooth="yes"/>
      <point x="1136" y="1383" type="line" smooth="yes"/>
      <point x="1135" y="1387"/>
      <point x="1132" y="1389"/>
      <point x="1127" y="1389" type="curve" smooth="yes"/>
      <point x="961" y="1389" type="line" smooth="yes"/>
      <point x="956" y="1389"/>
      <point x="953" y="1387"/>
      <point x="952" y="1383" type="curve" smooth="yes"/>
      <point x="511" y="224" type="line" smooth="yes"/>
      <point x="510" y="223"/>
      <point x="510" y="222"/>
      <point x="510" y="220" type="curve" smooth="yes"/>
      <point x="510" y="213"/>
      <point x="513" y="210"/>
      <point x="520" y="210" type="curve" smooth="yes"/>
    </contour>
    <contour>
      <point x="359" y="1510" type="line"/>
      <point x="1718" y="1510" type="line"/>
      <point x="1718" y="62" type="line"/>
      <point x="358" y="62" type="line"/>
    </contour>
    <contour>
      <point x="1871" y="1531" type="line"/>
      <point x="1871" y="1606"/>
      <point x="1813" y="1663"/>
      <point x="1740" y="1663" type="curve" smooth="yes"/>
      <point x="338" y="1663" type="line" smooth="yes"/>
      <point x="263" y="1663"/>
      <point x="206" y="1606"/>
      <point x="206" y="1531" type="curve" smooth="yes"/>
      <point x="206" y="41" type="line" smooth="yes"/>
      <point x="206" y="-34"/>
      <point x="264" y="-91"/>
      <point x="337" y="-91" type="curve" smooth="yes"/>
      <point x="1739" y="-91" type="line" smooth="yes"/>
      <point x="1814" y="-91"/>
      <point x="1871" y="-34"/>
      <point x="1871" y="41" type="curve" smooth="yes"/>
    </contour>
  </outline>
</glyph>
<glyph name="back_1" format="2">
  <advance width="2566"/>
  <unicode hex="E021"/>
  <outline>
    <contour>
      <point x="1527" y="915" type="line"/>
      <point x="1132" y="1310" type="line" smooth="yes"/>
      <point x="1130" y="1312"/>
      <point x="1128" y="1313"/>
      <point x="1125" y="1313" type="curve" smooth="yes"/>
      <point x="1122" y="1313"/>
      <point x="1120" y="1312"/>
      <point x="1118" y="1310" type="curve" smooth="yes"/>
      <point x="1002" y="1195" type="line" smooth="yes"/>
      <point x="1000" y="1193"/>
      <point x="999" y="1191"/>
      <point x="999" y="1188" type="curve" smooth="yes"/>
      <point x="999" y="1185"/>
      <point x="1000" y="1183"/>
      <point x="1002" y="1181" type="curve" smooth="yes"/>
      <point x="1399" y="785" type="line"/>
      <point x="1002" y="389" type="line" smooth="yes"/>
      <point x="1000" y="387"/>
      <point x="999" y="385"/>
      <point x="999" y="382" type="curve" smooth="yes"/>
      <point x="999" y="379"/>
      <point x="1000" y="377"/>
      <point x="1002" y="375" type="curve" smooth="yes"/>
      <point x="1118" y="260" type="line" smooth="yes"/>
      <point x="1120" y="258"/>
      <point x="1122" y="257"/>
      <point x="1125" y="257" type="curve" smooth="yes"/>
      <point x="1128" y="257"/>
      <point x="1130" y="258"/>
      <point x="1132" y="260" type="curve" smooth="yes"/>
      <point x="1527" y="655" type="line"/>
      <point x="1923" y="260" type="line" smooth="yes"/>
      <point x="1925" y="258"/>
      <point x="1927" y="257"/>
      <point x="1930" y="257" type="curve" smooth="yes"/>
      <point x="1933" y="257"/>
      <point x="1935" y="258"/>
      <point x="1937" y="260" type="curve" smooth="yes"/>
      <point x="2052" y="375" type="line" smooth="yes"/>
      <point x="2054" y="377"/>
      <point x="2055" y="379"/>
      <point x="2055" y="382" type="curve" smooth="yes"/>
      <point x="2055" y="385"/>
      <point x="2054" y="387"/>
      <point x="2052" y="389" type="curve" smooth="yes"/>
      <point x="1657" y="785" type="line"/>
      <point x="2052" y="1181" type="line" smooth="yes"/>
      <point x="2054" y="1183"/>
      <point x="2055" y="1185"/>
      <point x="2055" y="1188" type="curve" smooth="yes"/>
      <point x="2055" y="1191"/>
      <point x="2054" y="1193"/>
      <point x="2052" y="1195" type="curve" smooth="yes"/>
      <point x="1937" y="1310" type="line" smooth="yes"/>
      <point x="1935" y="1312"/>
      <point x="1933" y="1313"/>
      <point x="1930" y="1313" type="curve" smooth="yes"/>
      <point x="1927" y="1313"/>
      <point x="1925" y="1312"/>
      <point x="1923" y="1310" type="curve" smooth="yes"/>
    </contour>
    <contour>
      <point x="947" y="144" type="line"/>
      <point x="306" y="785" type="line"/>
      <point x="947" y="1426" type="line"/>
      <point x="2331" y="1426" type="line"/>
      <point x="2331" y="144" type="line"/>
    </contour>
    <contour>
      <point x="2514" y="1599" type="line"/>
      <point x="2514" y="1606"/>
      <point x="2511" y="1609"/>
      <point x="2504" y="1609" type="curve" smooth="yes"/>
      <point x="876" y="1609" type="line" smooth="yes"/>
      <point x="873" y="1609"/>
      <point x="871" y="1608"/>
      <point x="869" y="1606" type="curve" smooth="yes"/>
      <point x="55" y="792" type="line" smooth="yes"/>
      <point x="53" y="790"/>
      <point x="52" y="788"/>
      <point x="52" y="785" type="curve" smooth="yes"/>
      <point x="52" y="782"/>
      <point x="53" y="780"/>
      <point x="55" y="778" type="curve" smooth="yes"/>
      <point x="869" y="-36" type="line" smooth="yes"/>
      <point x="871" y="-38"/>
      <point x="873" y="-39"/>
      <point x="876" y="-39" type="curve" smooth="yes"/>
      <point x="2504" y="-39" type="line" smooth="yes"/>
      <point x="2511" y="-39"/>
      <point x="2514" y="-36"/>
      <point x="2514" y="-29" type="curve" smooth="yes"/>
    </contour>
  </outline>
</glyph>
<glyph name="back_2" format="2">
  <advance width="2171"/>
  <unicode hex="E022"/>
  <outline>
    <contour>
      <point x="689" y="1308" type="line"/>
      <point x="687" y="1310"/>
      <point x="685" y="1311"/>
      <point x="682" y="1311" type="curve" smooth="yes"/>
      <point x="679" y="1311"/>
      <point x="677" y="1310"/>
      <point x="675" y="1308" type="curve" smooth="yes"/>
      <point x="561" y="1193" type="line" smooth="yes"/>
      <point x="559" y="1191"/>
      <point x="558" y="1189"/>
      <point x="558" y="1186" type="curve" smooth="yes"/>
      <point x="558" y="1183"/>
      <point x="559" y="1181"/>
      <point x="561" y="1179" type="curve" smooth="yes"/>
      <point x="956" y="783" type="line"/>
      <point x="561" y="387" type="line" smooth="yes"/>
      <point x="559" y="385"/>
      <point x="558" y="383"/>
      <point x="558" y="380" type="curve" smooth="yes"/>
      <point x="558" y="377"/>
      <point x="559" y="375"/>
      <point x="561" y="373" type="curve" smooth="yes"/>
      <point x="675" y="258" type="line" smooth="yes"/>
      <point x="677" y="256"/>
      <point x="679" y="255"/>
      <point x="682" y="255" type="curve" smooth="yes"/>
      <point x="685" y="255"/>
      <point x="687" y="256"/>
      <point x="689" y="258" type="curve" smooth="yes"/>
      <point x="1086" y="653" type="line"/>
      <point x="1482" y="258" type="line" smooth="yes"/>
      <point x="1484" y="256"/>
      <point x="1486" y="255"/>
      <point x="1489" y="255" type="curve" smooth="yes"/>
      <point x="1492" y="255"/>
      <point x="1494" y="256"/>
      <point x="1496" y="258" type="curve" smooth="yes"/>
      <point x="1611" y="373" type="line" smooth="yes"/>
      <point x="1613" y="375"/>
      <point x="1614" y="377"/>
      <point x="1614" y="380" type="curve" smooth="yes"/>
      <point x="1614" y="383"/>
      <point x="1613" y="385"/>
      <point x="1611" y="387" type="curve" smooth="yes"/>
      <point x="1214" y="783" type="line"/>
      <point x="1611" y="1179" type="line" smooth="yes"/>
      <point x="1613" y="1181"/>
      <point x="1614" y="1183"/>
      <point x="1614" y="1186" type="curve" smooth="yes"/>
      <point x="1614" y="1189"/>
      <point x="1613" y="1191"/>
      <point x="1611" y="1193" type="curve" smooth="yes"/>
      <point x="1496" y="1308" type="line" smooth="yes"/>
      <point x="1494" y="1310"/>
      <point x="1492" y="1311"/>
      <point x="1489" y="1311" type="curve" smooth="yes"/>
      <point x="1486" y="1311"/>
      <point x="1484" y="1310"/>
      <point x="1482" y="1308" type="curve" smooth="yes"/>
      <point x="1086" y="913" type="line"/>
    </contour>
    <contour>
      <point x="254" y="1424" type="line"/>
      <point x="1918" y="1424" type="line"/>
      <point x="1918" y="142" type="line"/>
      <point x="254" y="142" type="line"/>
    </contour>
    <contour>
      <point x="2090" y="-41" type="line"/>
      <point x="2097" y="-41"/>
      <point x="2100" y="-38"/>
      <point x="2100" y="-31" type="curve" smooth="yes"/>
      <point x="2100" y="1597" type="line" smooth="yes"/>
      <point x="2100" y="1604"/>
      <point x="2097" y="1607"/>
      <point x="2090" y="1607" type="curve" smooth="yes"/>
      <point x="82" y="1607" type="line" smooth="yes"/>
      <point x="75" y="1607"/>
      <point x="72" y="1604"/>
      <point x="72" y="1597" type="curve" smooth="yes"/>
      <point x="72" y="-31" type="line" smooth="yes"/>
      <point x="72" y="-38"/>
      <point x="75" y="-41"/>
      <point x="82" y="-41" type="curve" smooth="yes"/>
    </contour>
  </outline>
</glyph>
<glyph name="resize" format="2">
  <advance width="1873"/>
  <unicode hex="E023"/>
  <outline>
    <contour>
      <point x="429" y="-184" type="line"/>
      <point x="1835" y="1222" type="line"/>
      <point x="1707" y="1350" type="line"/>
      <point x="301" y="-56" type="line"/>
    </contour>
    <contour>
      <point x="939" y="-184" type="line"/>
      <point x="1835" y="711" type="line"/>
      <point x="1707" y="839" type="line"/>
      <point x="811" y="-56" type="line"/>
    </contour>
    <contour>
      <point x="1449" y="-184" type="line"/>
      <point x="1835" y="202" type="line"/>
      <point x="1707" y="330" type="line"/>
      <point x="1321" y="-56" type="line"/>
    </contour>
  </outline>
</glyph>
<glyph name="pin" format="2">
  <advance width="1872"/>
  <unicode hex="E024"/>
  <outline>
    <contour>
      <point x="1040" y="1124" type="line"/>
      <point x="944" y="1171"/>
      <point x="843" y="1193"/>
      <point x="742" y="1193" type="curve" smooth="yes"/>
      <point x="575" y="1193"/>
      <point x="414" y="1133"/>
      <point x="289" y="1008" type="curve"/>
      <point x="702" y="595" type="line"/>
      <point x="166" y="59" type="line"/>
      <point x="293" y="-68" type="line"/>
      <point x="829" y="468" type="line"/>
      <point x="1242" y="55" type="line"/>
      <point x="1367" y="180"/>
      <point x="1427" y="341"/>
      <point x="1427" y="508" type="curve" smooth="yes"/>
      <point x="1427" y="609"/>
      <point x="1405" y="710"/>
      <point x="1358" y="806" type="curve"/>
      <point x="1662" y="1109" type="line"/>
      <point x="1757" y="1014" type="line"/>
      <point x="1878" y="1134" type="line"/>
      <point x="1368" y="1644" type="line"/>
      <point x="1248" y="1523" type="line"/>
      <point x="1343" y="1428" type="line"/>
    </contour>
  </outline>
</glyph>
<glyph name="close" format="2">
  <advance width="2813"/>
  <unicode hex="E025"/>
  <outline>
    <contour>
      <point x="466" y="1317" type="line"/>
      <point x="331" y="1181" type="line"/>
      <point x="805" y="707" type="line"/>
      <point x="331" y="233" type="line"/>
      <point x="466" y="97" type="line"/>
      <point x="941" y="571" type="line"/>
      <point x="1415" y="97" type="line"/>
      <point x="1551" y="233" type="line"/>
      <point x="1076" y="707" type="line"/>
      <point x="1551" y="1181" type="line"/>
      <point x="1415" y="1317" type="line"/>
      <point x="941" y="843" type="line"/>
    </contour>
  </outline>
</glyph>
<glyph name="pin_1" format="1">
  <advance width="1872"/>
  <unicode hex="E026"/>
  <outline>
    <contour>
      <point x="1028" y="1159" type="line"/>
      <point x="941" y="1196"/>
      <point x="856" y="1212"/>
      <point x="764" y="1212" type="curve" smooth="yes"/>
      <point x="597" y="1212"/>
      <point x="433" y="1151"/>
      <point x="308" y="1024" type="curve" smooth="yes"/>
      <point x="297" y="1013"/>
      <point x="292" y="1000"/>
      <point x="292" y="985" type="curve" smooth="yes"/>
      <point x="292" y="970"/>
      <point x="297" y="957"/>
      <point x="308" y="947" type="curve" smooth="yes"/>
      <point x="415" y="840"/>
      <point x="540" y="711"/>
      <point x="649" y="604" type="curve"/>
      <point x="193" y="149" type="line" smooth="yes"/>
      <point x="182" y="138"/>
      <point x="177" y="124"/>
      <point x="177" y="109" type="curve" smooth="yes"/>
      <point x="177" y="94"/>
      <point x="182" y="81"/>
      <point x="193" y="71" type="curve" smooth="yes"/>
      <point x="311" y="-46" type="line"/>
      <point x="321" y="-57"/>
      <point x="334" y="-62"/>
      <point x="349" y="-62" type="curve" smooth="yes"/>
      <point x="364" y="-62"/>
      <point x="377" y="-57"/>
      <point x="388" y="-46" type="curve" smooth="yes"/>
      <point x="843" y="409" type="line"/>
      <point x="1185" y="66" type="line" smooth="yes"/>
      <point x="1196" y="55"/>
      <point x="1210" y="49"/>
      <point x="1225" y="49" type="curve" smooth="yes"/>
      <point x="1240" y="49"/>
      <point x="1254" y="55"/>
      <point x="1265" y="66" type="curve" smooth="yes"/>
      <point x="1390" y="194"/>
      <point x="1451" y="357"/>
      <point x="1451" y="524" type="curve" smooth="yes"/>
      <point x="1451" y="616"/>
      <point x="1435" y="701"/>
      <point x="1398" y="788" type="curve"/>
      <point x="1478" y="865"/>
      <point x="1540" y="928"/>
      <point x="1613" y="1001" type="curve"/>
      <point x="1661" y="952" type="line" smooth="yes"/>
      <point x="1672" y="941"/>
      <point x="1685" y="936"/>
      <point x="1700" y="936" type="curve" smooth="yes"/>
      <point x="1715" y="936"/>
      <point x="1728" y="941"/>
      <point x="1739" y="952" type="curve" smooth="yes"/>
      <point x="1851" y="1063" type="line" smooth="yes"/>
      <point x="1862" y="1074"/>
      <point x="1867" y="1086"/>
      <point x="1867" y="1101" type="curve" smooth="yes"/>
      <point x="1867" y="1115"/>
      <point x="1862" y="1128"/>
      <point x="1851" y="1140" type="curve" smooth="yes"/>
      <point x="1380" y="1611" type="line" smooth="yes"/>
      <point x="1368" y="1622"/>
      <point x="1355" y="1627"/>
      <point x="1341" y="1627" type="curve" smooth="yes"/>
      <point x="1326" y="1627"/>
      <point x="1314" y="1622"/>
      <point x="1303" y="1611" type="curve" smooth="yes"/>
      <point x="1192" y="1499" type="line" smooth="yes"/>
      <point x="1181" y="1488"/>
      <point x="1176" y="1475"/>
      <point x="1176" y="1460" type="curve" smooth="yes"/>
      <point x="1176" y="1445"/>
      <point x="1181" y="1432"/>
      <point x="1192" y="1422" type="curve" smooth="yes"/>
      <point x="1241" y="1373" type="line"/>
    </contour>
    <contour>
      <point x="1332" y="1373" type="line"/>
      <point x="1231" y="1461" type="line"/>
      <point x="1341" y="1572" type="line"/>
      <point x="1812" y="1102" type="line"/>
      <point x="1700" y="991" type="line"/>
      <point x="1613" y="1079" type="line"/>
      <point x="1332" y="799" type="line"/>
      <point x="1375" y="711"/>
      <point x="1396" y="618"/>
      <point x="1396" y="523" type="curve" smooth="yes"/>
      <point x="1396" y="370"/>
      <point x="1340" y="221"/>
      <point x="1225" y="106" type="curve"/>
      <point x="1225" y="105" type="line"/>
      <point x="844" y="487" type="line"/>
      <point x="349" y="-7" type="line"/>
      <point x="232" y="110" type="line"/>
      <point x="727" y="604" type="line"/>
      <point x="346" y="985" type="line"/>
      <point x="347" y="985" type="line"/>
      <point x="462" y="1101"/>
      <point x="611" y="1156"/>
      <point x="764" y="1156" type="curve" smooth="yes"/>
      <point x="859" y="1156"/>
      <point x="951" y="1136"/>
      <point x="1039" y="1093" type="curve"/>
    </contour>
    <contour>
      <point x="1332" y="799" type="move"/>
    </contour>
  </outline>
</glyph>
<glyph name="close_1" format="1">
  <advance width="2813"/>
  <unicode hex="E027"/>
  <outline>
    <contour>
      <point x="541" y="1309" type="line"/>
      <point x="530" y="1320"/>
      <point x="517" y="1326"/>
      <point x="502" y="1325" type="curve"/>
      <point x="488" y="1326"/>
      <point x="475" y="1320"/>
      <point x="464" y="1309" type="curve" smooth="yes"/>
      <point x="339" y="1184" type="line" smooth="yes"/>
      <point x="328" y="1173"/>
      <point x="323" y="1160"/>
      <point x="323" y="1145" type="curve" smooth="yes"/>
      <point x="323" y="1130"/>
      <point x="328" y="1117"/>
      <point x="339" y="1106" type="curve" smooth="yes"/>
      <point x="738" y="708" type="line"/>
      <point x="339" y="309" type="line" smooth="yes"/>
      <point x="328" y="298"/>
      <point x="323" y="285"/>
      <point x="323" y="270" type="curve" smooth="yes"/>
      <point x="323" y="255"/>
      <point x="328" y="242"/>
      <point x="339" y="232" type="curve"/>
      <point x="464" y="106" type="line" smooth="yes"/>
      <point x="474" y="95"/>
      <point x="487" y="90"/>
      <point x="502" y="90" type="curve" smooth="yes"/>
      <point x="517" y="90"/>
      <point x="530" y="95"/>
      <point x="541" y="106" type="curve" smooth="yes"/>
      <point x="941" y="505" type="line"/>
      <point x="1340" y="106" type="line" smooth="yes"/>
      <point x="1350" y="95"/>
      <point x="1363" y="90"/>
      <point x="1378" y="90" type="curve" smooth="yes"/>
      <point x="1393" y="90"/>
      <point x="1406" y="95"/>
      <point x="1417" y="106" type="curve" smooth="yes"/>
      <point x="1543" y="232" type="line" smooth="yes"/>
      <point x="1554" y="243"/>
      <point x="1559" y="255"/>
      <point x="1559" y="270" type="curve" smooth="yes"/>
      <point x="1559" y="284"/>
      <point x="1554" y="297"/>
      <point x="1543" y="309" type="curve"/>
      <point x="1143" y="708" type="line"/>
      <point x="1543" y="1106" type="line" smooth="yes"/>
      <point x="1554" y="1117"/>
      <point x="1558" y="1130"/>
      <point x="1559" y="1145" type="curve" smooth="yes"/>
      <point x="1559" y="1159"/>
      <point x="1554" y="1172"/>
      <point x="1543" y="1184" type="curve"/>
      <point x="1417" y="1309" type="line" smooth="yes"/>
      <point x="1406" y="1320"/>
      <point x="1393" y="1326"/>
      <point x="1378" y="1325" type="curve"/>
      <point x="1364" y="1326"/>
      <point x="1351" y="1320"/>
      <point x="1340" y="1309" type="curve" smooth="yes"/>
      <point x="941" y="911" type="line"/>
    </contour>
    <contour>
      <point x="941" y="833" type="line"/>
      <point x="1378" y="1271" type="line"/>
      <point x="1504" y="1145" type="line"/>
      <point x="1066" y="708" type="line"/>
      <point x="1504" y="270" type="line"/>
      <point x="1378" y="145" type="line"/>
      <point x="941" y="582" type="line"/>
      <point x="503" y="145" type="line"/>
      <point x="378" y="270" type="line"/>
      <point x="816" y="708" type="line"/>
      <point x="378" y="1145" type="line"/>
      <point x="503" y="1271" type="line"/>
    </contour>
  </outline>
</glyph>
<glyph name="resize_1" format="1">
  <advance width="1873"/>
  <unicode hex="E028"/>
  <outline>
    <contour>
      <point x="1301" y="4" type="line"/>
      <point x="1658" y="360" type="line"/>
      <point x="1776" y="242" type="line"/>
      <point x="1420" y="-114" type="line"/>
    </contour>
    <contour>
      <point x="831" y="4" type="line"/>
      <point x="1658" y="830" type="line"/>
      <point x="1776" y="711" type="line"/>
      <point x="949" y="-114" type="line"/>
    </contour>
    <contour>
      <point x="360" y="4" type="line"/>
      <point x="1658" y="1301" type="line"/>
      <point x="1776" y="1183" type="line"/>
      <point x="478" y="-114" type="line"/>
    </contour>
    <contour>
      <point x="440" y="-153" type="line"/>
      <point x="450" y="-164"/>
      <point x="463" y="-169"/>
      <point x="478" y="-169" type="curve" smooth="yes"/>
      <point x="493" y="-169"/>
      <point x="506" y="-164"/>
      <point x="517" y="-153" type="curve" smooth="yes"/>
      <point x="1814" y="1144" type="line" smooth="yes"/>
      <point x="1825" y="1155"/>
      <point x="1831" y="1168"/>
      <point x="1830" y="1182" type="curve"/>
      <point x="1830" y="1197"/>
      <point x="1825" y="1211"/>
      <point x="1814" y="1222" type="curve" smooth="yes"/>
      <point x="1696" y="1340" type="line" smooth="yes"/>
      <point x="1684" y="1351"/>
      <point x="1671" y="1356"/>
      <point x="1657" y="1356" type="curve" smooth="yes"/>
      <point x="1642" y="1356"/>
      <point x="1630" y="1351"/>
      <point x="1619" y="1340" type="curve" smooth="yes"/>
      <point x="322" y="42" type="line" smooth="yes"/>
      <point x="311" y="31"/>
      <point x="305" y="18"/>
      <point x="305" y="3" type="curve" smooth="yes"/>
      <point x="305" y="-12"/>
      <point x="311" y="-25"/>
      <point x="322" y="-35" type="curve" smooth="yes"/>
    </contour>
    <contour>
      <point x="910" y="-153" type="line"/>
      <point x="920" y="-164"/>
      <point x="933" y="-169"/>
      <point x="948" y="-169" type="curve" smooth="yes"/>
      <point x="963" y="-169"/>
      <point x="977" y="-164"/>
      <point x="988" y="-153" type="curve" smooth="yes"/>
      <point x="1814" y="673" type="line" smooth="yes"/>
      <point x="1825" y="684"/>
      <point x="1831" y="697"/>
      <point x="1830" y="711" type="curve"/>
      <point x="1831" y="726"/>
      <point x="1825" y="739"/>
      <point x="1814" y="750" type="curve" smooth="yes"/>
      <point x="1696" y="868" type="line" smooth="yes"/>
      <point x="1685" y="879"/>
      <point x="1672" y="885"/>
      <point x="1657" y="884" type="curve"/>
      <point x="1643" y="885"/>
      <point x="1630" y="879"/>
      <point x="1619" y="868" type="curve" smooth="yes"/>
      <point x="792" y="42" type="line" smooth="yes"/>
      <point x="781" y="31"/>
      <point x="776" y="18"/>
      <point x="776" y="3" type="curve" smooth="yes"/>
      <point x="776" y="-12"/>
      <point x="781" y="-25"/>
      <point x="792" y="-35" type="curve" smooth="yes"/>
    </contour>
    <contour>
      <point x="1381" y="-153" type="line"/>
      <point x="1391" y="-164"/>
      <point x="1404" y="-169"/>
      <point x="1419" y="-169" type="curve" smooth="yes"/>
      <point x="1434" y="-169"/>
      <point x="1447" y="-164"/>
      <point x="1458" y="-153" type="curve" smooth="yes"/>
      <point x="1814" y="203" type="line" smooth="yes"/>
      <point x="1825" y="214"/>
      <point x="1831" y="227"/>
      <point x="1830" y="241" type="curve"/>
      <point x="1830" y="256"/>
      <point x="1825" y="270"/>
      <point x="1814" y="281" type="curve" smooth="yes"/>
      <point x="1696" y="399" type="line" smooth="yes"/>
      <point x="1684" y="410"/>
      <point x="1671" y="415"/>
      <point x="1657" y="415" type="curve" smooth="yes"/>
      <point x="1642" y="415"/>
      <point x="1630" y="410"/>
      <point x="1619" y="399" type="curve" smooth="yes"/>
      <point x="1263" y="42" type="line" smooth="yes"/>
      <point x="1252" y="31"/>
      <point x="1246" y="18"/>
      <point x="1246" y="3" type="curve" smooth="yes"/>
      <point x="1246" y="-11"/>
      <point x="1252" y="-24"/>
      <point x="1263" y="-35" type="curve" smooth="yes"/>
    </contour>
  </outline>
</glyph>
<glyph name="gearwheel" format="1">
  <advance width="1871"/>
  <unicode hex="E030"/>
  <outline>
    <contour>
      <point x="941" y="1153" type="curve" smooth="yes"/>
      <point x="1187" y="1153"/>
      <point x="1387" y="953"/>
      <point x="1387" y="707" type="curve" smooth="yes"/>
      <point x="1387" y="461"/>
      <point x="1187" y="260"/>
      <point x="941" y="260" type="curve" smooth="yes"/>
      <point x="695" y="260"/>
      <point x="494" y="461"/>
      <point x="494" y="707" type="curve" smooth="yes"/>
      <point x="494" y="953"/>
      <point x="695" y="1153"/>
    </contour>
    <contour>
      <point x="870" y="1545" type="line"/>
      <point x="836" y="1347" type="line"/>
      <point x="793" y="1340"/>
      <point x="752" y="1329"/>
      <point x="713" y="1314" type="curve"/>
      <point x="582" y="1469" type="line"/>
      <point x="461" y="1398" type="line"/>
      <point x="530" y="1208" type="line"/>
      <point x="497" y="1181"/>
      <point x="467" y="1151"/>
      <point x="440" y="1118" type="curve"/>
      <point x="249" y="1188" type="line"/>
      <point x="180" y="1065" type="line"/>
      <point x="335" y="935" type="line"/>
      <point x="320" y="896"/>
      <point x="309" y="855"/>
      <point x="302" y="812" type="curve"/>
      <point x="102" y="777" type="line"/>
      <point x="102" y="636" type="line"/>
      <point x="302" y="602" type="line"/>
      <point x="309" y="559"/>
      <point x="320" y="518"/>
      <point x="335" y="479" type="curve"/>
      <point x="180" y="348" type="line"/>
      <point x="249" y="227" type="line"/>
      <point x="440" y="296" type="line"/>
      <point x="467" y="263"/>
      <point x="497" y="233"/>
      <point x="530" y="206" type="curve"/>
      <point x="461" y="15" type="line"/>
      <point x="582" y="-54" type="line"/>
      <point x="713" y="101" type="line"/>
      <point x="752" y="86"/>
      <point x="793" y="75"/>
      <point x="836" y="68" type="curve"/>
      <point x="870" y="-132" type="line"/>
      <point x="1011" y="-132" type="line"/>
      <point x="1046" y="68" type="line"/>
      <point x="1089" y="75"/>
      <point x="1130" y="86"/>
      <point x="1170" y="101" type="curve"/>
      <point x="1299" y="-54" type="line"/>
      <point x="1422" y="15" type="line"/>
      <point x="1352" y="206" type="line"/>
      <point x="1385" y="233"/>
      <point x="1415" y="263"/>
      <point x="1442" y="296" type="curve"/>
      <point x="1632" y="227" type="line"/>
      <point x="1703" y="348" type="line"/>
      <point x="1548" y="479" type="line"/>
      <point x="1563" y="518"/>
      <point x="1574" y="559"/>
      <point x="1581" y="602" type="curve"/>
      <point x="1781" y="636" type="line"/>
      <point x="1781" y="777" type="line"/>
      <point x="1581" y="812" type="line"/>
      <point x="1574" y="855"/>
      <point x="1563" y="896"/>
      <point x="1548" y="935" type="curve"/>
      <point x="1703" y="1065" type="line"/>
      <point x="1632" y="1188" type="line"/>
      <point x="1442" y="1118" type="line"/>
      <point x="1415" y="1151"/>
      <point x="1385" y="1181"/>
      <point x="1352" y="1208" type="curve"/>
      <point x="1422" y="1398" type="line"/>
      <point x="1299" y="1469" type="line"/>
      <point x="1170" y="1314" type="line"/>
      <point x="1130" y="1329"/>
      <point x="1089" y="1340"/>
      <point x="1046" y="1347" type="curve"/>
      <point x="1011" y="1545" type="line"/>
    </contour>
  </outline>
</glyph>
<glyph name="info" format="2">
  <advance width="2079"/>
  <unicode hex="E031"/>
  <outline>
    <contour>
      <point x="846" y="769" type="line"/>
      <point x="905" y="808"/>
      <point x="945" y="837"/>
      <point x="970" y="852" type="curve"/>
      <point x="966" y="805"/>
      <point x="937" y="676"/>
      <point x="892" y="500" type="curve"/>
      <point x="838" y="307"/>
      <point x="831" y="259"/>
      <point x="831" y="195" type="curve" smooth="yes"/>
      <point x="831" y="122"/>
      <point x="873" y="70"/>
      <point x="953" y="70" type="curve" smooth="yes"/>
      <point x="1018" y="70"/>
      <point x="1070" y="91"/>
      <point x="1185" y="168" type="curve" smooth="yes"/>
      <point x="1248" y="211"/>
      <point x="1319" y="261"/>
      <point x="1366" y="294" type="curve"/>
      <point x="1373" y="312" type="line"/>
      <point x="1337" y="374" type="line"/>
      <point x="1271" y="375" type="line"/>
      <point x="1216" y="336"/>
      <point x="1180" y="311"/>
      <point x="1157" y="296" type="curve"/>
      <point x="1158" y="331"/>
      <point x="1186" y="450"/>
      <point x="1240" y="652" type="curve" smooth="yes"/>
      <point x="1252" y="696"/>
      <point x="1299" y="883"/>
      <point x="1303" y="898" type="curve" smooth="yes"/>
      <point x="1315" y="946"/>
      <point x="1320" y="985"/>
      <point x="1320" y="1012" type="curve" smooth="yes"/>
      <point x="1320" y="1070"/>
      <point x="1272" y="1111"/>
      <point x="1212" y="1111" type="curve" smooth="yes"/>
      <point x="1165" y="1111"/>
      <point x="1107" y="1090"/>
      <point x="1039" y="1051" type="curve" smooth="yes"/>
      <point x="966" y="1008"/>
      <point x="870" y="941"/>
      <point x="749" y="848" type="curve"/>
      <point x="747" y="829" type="line"/>
      <point x="779" y="772" type="line"/>
    </contour>
    <contour>
      <point x="1072" y="1384" type="curve" smooth="yes"/>
      <point x="1072" y="1301"/>
      <point x="1119" y="1242"/>
      <point x="1230" y="1242" type="curve" smooth="yes"/>
      <point x="1366" y="1242"/>
      <point x="1411" y="1348"/>
      <point x="1411" y="1420" type="curve" smooth="yes"/>
      <point x="1411" y="1501"/>
      <point x="1354" y="1555"/>
      <point x="1254" y="1555" type="curve" smooth="yes"/>
      <point x="1149" y="1555"/>
      <point x="1072" y="1479"/>
    </contour>
  </outline>
</glyph>
<glyph name="help" format="1">
  <advance width="2085"/>
  <unicode hex="E032"/>
  <outline>
    <contour>
      <point x="746" y="169" type="curve" smooth="yes"/>
      <point x="746" y="73"/>
      <point x="801" y="25"/>
      <point x="911" y="25" type="curve" smooth="yes"/>
      <point x="1048" y="25"/>
      <point x="1104" y="139"/>
      <point x="1104" y="222" type="curve" smooth="yes"/>
      <point x="1104" y="310"/>
      <point x="1042" y="366"/>
      <point x="938" y="366" type="curve" smooth="yes"/>
      <point x="818" y="366"/>
      <point x="746" y="278"/>
    </contour>
    <contour>
      <point x="1025" y="430" type="line"/>
      <point x="1079" y="473" type="line"/>
      <point x="1079" y="492" type="line"/>
      <point x="1056" y="515"/>
      <point x="1045" y="539"/>
      <point x="1045" y="566" type="curve" smooth="yes"/>
      <point x="1045" y="629"/>
      <point x="1094" y="669"/>
      <point x="1206" y="744" type="curve"/>
      <point x="1437" y="903"/>
      <point x="1535" y="998"/>
      <point x="1535" y="1164" type="curve" smooth="yes"/>
      <point x="1535" y="1361"/>
      <point x="1362" y="1488"/>
      <point x="1130" y="1488" type="curve" smooth="yes"/>
      <point x="1026" y="1488"/>
      <point x="940" y="1466"/>
      <point x="815" y="1386" type="curve"/>
      <point x="798" y="1315"/>
      <point x="772" y="1233"/>
      <point x="733" y="1134" type="curve"/>
      <point x="745" y="1106" type="line"/>
      <point x="839" y="1092" type="line"/>
      <point x="886" y="1110" type="line"/>
      <point x="917" y="1187"/>
      <point x="943" y="1237"/>
      <point x="964" y="1252" type="curve" smooth="yes"/>
      <point x="991" y="1271"/>
      <point x="1023" y="1280"/>
      <point x="1054" y="1280" type="curve" smooth="yes"/>
      <point x="1134" y="1280"/>
      <point x="1190" y="1228"/>
      <point x="1190" y="1151" type="curve" smooth="yes"/>
      <point x="1190" y="1104"/>
      <point x="1180" y="1063"/>
      <point x="1157" y="1027" type="curve" smooth="yes"/>
      <point x="1129" y="982"/>
      <point x="1081" y="925"/>
      <point x="1012" y="854" type="curve" smooth="yes"/>
      <point x="945" y="786"/>
      <point x="904" y="737"/>
      <point x="889" y="704" type="curve"/>
      <point x="889" y="706" type="line"/>
      <point x="870" y="667"/>
      <point x="860" y="634"/>
      <point x="860" y="605" type="curve" smooth="yes"/>
      <point x="860" y="554"/>
      <point x="882" y="504"/>
      <point x="962" y="430" type="curve"/>
    </contour>
  </outline>
</glyph>
<glyph name="facebook" format="1">
  <advance width="888"/>
  <unicode hex="E033"/>
  <outline>
    <contour>
      <point x="84" y="821" type="line"/>
      <point x="240" y="821" type="line"/>
      <point x="240" y="0" type="line"/>
      <point x="541" y="0" type="line"/>
      <point x="541" y="821" type="line"/>
      <point x="761" y="821" type="line"/>
      <point x="781" y="1032" type="line"/>
      <point x="541" y="1032" type="line"/>
      <point x="541" y="1107" type="line" smooth="yes"/>
      <point x="541" y="1215"/>
      <point x="571" y="1245"/>
      <point x="645" y="1245" type="curve" smooth="yes"/>
      <point x="684" y="1245"/>
      <point x="730" y="1239"/>
      <point x="783" y="1226" type="curve"/>
      <point x="822" y="1423" type="line"/>
      <point x="740" y="1448"/>
      <point x="658" y="1461"/>
      <point x="577" y="1461" type="curve" smooth="yes"/>
      <point x="409" y="1461"/>
      <point x="304" y="1392"/>
      <point x="269" y="1312" type="curve" smooth="yes"/>
      <point x="249" y="1267"/>
      <point x="240" y="1200"/>
      <point x="240" y="1112" type="curve" smooth="yes"/>
      <point x="240" y="1032" type="line"/>
      <point x="84" y="1032" type="line"/>
    </contour>
  </outline>
</glyph>
<glyph name="twitter" format="2">
  <advance width="2098"/>
  <unicode hex="E034"/>
  <outline>
    <contour>
      <point x="20" y="392" type="curve"/>
      <point x="119" y="256"/>
      <point x="243" y="160"/>
      <point x="395" y="89" type="curve" smooth="yes"/>
      <point x="542" y="21"/>
      <point x="677" y="0"/>
      <point x="816" y="0" type="curve" smooth="yes"/>
      <point x="871" y="0"/>
      <point x="922" y="3"/>
      <point x="978" y="8" type="curve" smooth="yes"/>
      <point x="1183" y="25"/>
      <point x="1383" y="104"/>
      <point x="1568" y="269" type="curve"/>
      <point x="1707" y="395"/>
      <point x="1776" y="532"/>
      <point x="1808" y="670" type="curve"/>
      <point x="1833" y="670" type="line" smooth="yes"/>
      <point x="1900" y="670"/>
      <point x="1966" y="677"/>
      <point x="2054" y="760" type="curve"/>
      <point x="2031" y="758"/>
      <point x="2008" y="757"/>
      <point x="1985" y="757" type="curve" smooth="yes"/>
      <point x="1929" y="757"/>
      <point x="1878" y="763"/>
      <point x="1827" y="782" type="curve"/>
      <point x="1912" y="785"/>
      <point x="1992" y="817"/>
      <point x="2043" y="893" type="curve"/>
      <point x="2007" y="877"/>
      <point x="1960" y="872"/>
      <point x="1919" y="872" type="curve" smooth="yes"/>
      <point x="1879" y="872"/>
      <point x="1839" y="878"/>
      <point x="1799" y="890" type="curve"/>
      <point x="1794" y="946"/>
      <point x="1773" y="998"/>
      <point x="1740" y="1050" type="curve" smooth="yes"/>
      <point x="1643" y="1207"/>
      <point x="1521" y="1278"/>
      <point x="1369" y="1282" type="curve"/>
      <point x="1412" y="1295"/>
      <point x="1532" y="1314"/>
      <point x="1532" y="1361" type="curve" smooth="yes"/>
      <point x="1532" y="1370"/>
      <point x="1525" y="1378"/>
      <point x="1509" y="1378" type="curve" smooth="yes"/>
      <point x="1466" y="1378"/>
      <point x="1411" y="1355"/>
      <point x="1369" y="1339" type="curve" smooth="yes"/>
      <point x="1412" y="1355"/>
      <point x="1432" y="1379"/>
      <point x="1440" y="1410" type="curve"/>
      <point x="1374" y="1410"/>
      <point x="1338" y="1369"/>
      <point x="1291" y="1343" type="curve"/>
      <point x="1302" y="1359"/>
      <point x="1308" y="1375"/>
      <point x="1308" y="1391" type="curve"/>
      <point x="1150" y="1296"/>
      <point x="1041" y="1023"/>
      <point x="997" y="900" type="curve"/>
      <point x="895" y="1000"/>
      <point x="711" y="1106"/>
      <point x="319" y="1255" type="curve"/>
      <point x="318" y="1247"/>
      <point x="317" y="1240"/>
      <point x="317" y="1232" type="curve" smooth="yes"/>
      <point x="317" y="1150"/>
      <point x="377" y="1052"/>
      <point x="485" y="997" type="curve"/>
      <point x="477" y="998"/>
      <point x="469" y="998"/>
      <point x="461" y="998" type="curve" smooth="yes"/>
      <point x="426" y="998"/>
      <point x="395" y="991"/>
      <point x="364" y="980" type="curve"/>
      <point x="372" y="946"/>
      <point x="374" y="916"/>
      <point x="419" y="873" type="curve"/>
      <point x="464" y="828"/>
      <point x="525" y="797"/>
      <point x="596" y="774" type="curve"/>
      <point x="585" y="775"/>
      <point x="575" y="776"/>
      <point x="566" y="776" type="curve" smooth="yes"/>
      <point x="511" y="776"/>
      <point x="484" y="751"/>
      <point x="457" y="724" type="curve"/>
      <point x="475" y="648"/>
      <point x="583" y="597"/>
      <point x="653" y="597" type="curve" smooth="yes"/>
      <point x="668" y="597"/>
      <point x="682" y="598"/>
      <point x="698" y="601" type="curve"/>
      <point x="658" y="577"/>
      <point x="621" y="553"/>
      <point x="621" y="510" type="curve" smooth="yes"/>
      <point x="621" y="462"/>
      <point x="680" y="422"/>
      <point x="736" y="422" type="curve" smooth="yes"/>
      <point x="747" y="422"/>
      <point x="758" y="423"/>
      <point x="769" y="425" type="curve"/>
      <point x="645" y="303"/>
      <point x="506" y="259"/>
      <point x="382" y="259" type="curve" smooth="yes"/>
      <point x="228" y="259"/>
      <point x="92" y="325"/>
    </contour>
  </outline>
</glyph>
<glyph name="download" format="2">
  <advance width="1641"/>
  <unicode hex="E035"/>
  <outline>
    <contour>
      <point x="533" y="1027" type="line"/>
      <point x="533" y="583" type="line"/>
      <point x="137" y="583" type="line"/>
      <point x="829" y="100" type="line"/>
      <point x="1522" y="583" type="line"/>
      <point x="1126" y="583" type="line"/>
      <point x="1126" y="1027" type="line"/>
    </contour>
    <contour>
      <point x="533" y="1290" type="line"/>
      <point x="533" y="1085" type="line"/>
      <point x="1126" y="1085" type="line"/>
      <point x="1126" y="1290" type="line"/>
    </contour>
    <contour>
      <point x="143" y="50" type="line"/>
      <point x="143" y="-85" type="line"/>
      <point x="1516" y="-85" type="line"/>
      <point x="1516" y="50" type="line"/>
    </contour>
    <contour>
      <point x="533" y="1480" type="line"/>
      <point x="533" y="1345" type="line"/>
      <point x="1126" y="1345" type="line"/>
      <point x="1126" y="1480" type="line"/>
    </contour>
    <contour>
      <point x="533" y="1590" type="line"/>
      <point x="533" y="1535" type="line"/>
      <point x="1126" y="1535" type="line"/>
      <point x="1126" y="1590" type="line"/>
    </contour>
  </outline>
</glyph>
<glyph name="info_1" format="1">
  <advance width="2103"/>
  <unicode hex="E041"/>
  <outline>
    <contour>
      <point x="52" y="787" type="curve" smooth="yes"/>
      <point x="52" y="236"/>
      <point x="497" y="-208"/>
      <point x="1047" y="-208" type="curve" smooth="yes"/>
      <point x="1596" y="-208"/>
      <point x="2042" y="237"/>
      <point x="2042" y="787" type="curve" smooth="yes"/>
      <point x="2042" y="1336"/>
      <point x="1596" y="1782"/>
      <point x="1047" y="1782" type="curve" smooth="yes"/>
      <point x="496" y="1782"/>
      <point x="52" y="1336"/>
    </contour>
    <contour>
      <point x="774" y="785" type="line"/>
      <point x="747" y="832" type="line"/>
      <point x="749" y="848" type="line"/>
      <point x="849" y="925"/>
      <point x="930" y="981"/>
      <point x="991" y="1017" type="curve" smooth="yes"/>
      <point x="1048" y="1050"/>
      <point x="1096" y="1067"/>
      <point x="1135" y="1067" type="curve" smooth="yes"/>
      <point x="1186" y="1067"/>
      <point x="1225" y="1033"/>
      <point x="1225" y="985" type="curve" smooth="yes"/>
      <point x="1225" y="929"/>
      <point x="1217" y="905"/>
      <point x="1158" y="685" type="curve" smooth="yes"/>
      <point x="1113" y="517"/>
      <point x="1090" y="418"/>
      <point x="1089" y="388" type="curve"/>
      <point x="1108" y="400"/>
      <point x="1139" y="422"/>
      <point x="1184" y="454" type="curve"/>
      <point x="1239" y="453" type="line"/>
      <point x="1269" y="401" type="line"/>
      <point x="1263" y="386" type="line"/>
      <point x="1185" y="332"/>
      <point x="1049" y="235"/>
      <point x="993" y="214" type="curve" smooth="yes"/>
      <point x="970" y="205"/>
      <point x="945" y="200"/>
      <point x="919" y="200" type="curve" smooth="yes"/>
      <point x="851" y="200"/>
      <point x="817" y="243"/>
      <point x="817" y="304" type="curve" smooth="yes"/>
      <point x="817" y="358"/>
      <point x="823" y="398"/>
      <point x="868" y="558" type="curve"/>
      <point x="907" y="706"/>
      <point x="930" y="812"/>
      <point x="933" y="851" type="curve"/>
      <point x="912" y="839"/>
      <point x="878" y="815"/>
      <point x="830" y="782" type="curve"/>
    </contour>
    <contour>
      <point x="1018" y="1295" type="curve" smooth="yes"/>
      <point x="1018" y="1374"/>
      <point x="1082" y="1437"/>
      <point x="1170" y="1437" type="curve" smooth="yes"/>
      <point x="1253" y="1437"/>
      <point x="1301" y="1393"/>
      <point x="1301" y="1325" type="curve" smooth="yes"/>
      <point x="1301" y="1263"/>
      <point x="1261" y="1176"/>
      <point x="1150" y="1176" type="curve" smooth="yes"/>
      <point x="1057" y="1176"/>
      <point x="1018" y="1226"/>
    </contour>
  </outline>
</glyph>
<glyph name="help_1" format="2">
  <advance width="2139"/>
  <unicode hex="E042"/>
  <outline>
    <contour>
      <point x="66" y="789" type="curve" smooth="yes"/>
      <point x="66" y="238"/>
      <point x="511" y="-206"/>
      <point x="1061" y="-206" type="curve" smooth="yes"/>
      <point x="1610" y="-206"/>
      <point x="2056" y="239"/>
      <point x="2056" y="789" type="curve" smooth="yes"/>
      <point x="2056" y="1338"/>
      <point x="1610" y="1784"/>
      <point x="1061" y="1784" type="curve" smooth="yes"/>
      <point x="510" y="1784"/>
      <point x="66" y="1338"/>
    </contour>
    <contour>
      <point x="789" y="249" type="curve" smooth="yes"/>
      <point x="789" y="340"/>
      <point x="849" y="413"/>
      <point x="949" y="413" type="curve" smooth="yes"/>
      <point x="1036" y="413"/>
      <point x="1087" y="366"/>
      <point x="1087" y="293" type="curve" smooth="yes"/>
      <point x="1087" y="225"/>
      <point x="1041" y="129"/>
      <point x="926" y="129" type="curve" smooth="yes"/>
      <point x="835" y="129"/>
      <point x="789" y="169"/>
    </contour>
    <contour>
      <point x="969" y="466" type="line"/>
      <point x="902" y="530"/>
      <point x="884" y="569"/>
      <point x="884" y="612" type="curve" smooth="yes"/>
      <point x="884" y="636"/>
      <point x="893" y="664"/>
      <point x="908" y="696" type="curve"/>
      <point x="908" y="695" type="line"/>
      <point x="928" y="739"/>
      <point x="1094" y="903"/>
      <point x="1131" y="964" type="curve" smooth="yes"/>
      <point x="1150" y="995"/>
      <point x="1159" y="1030"/>
      <point x="1159" y="1067" type="curve" smooth="yes"/>
      <point x="1159" y="1131"/>
      <point x="1113" y="1175"/>
      <point x="1045" y="1175" type="curve" smooth="yes"/>
      <point x="1020" y="1175"/>
      <point x="993" y="1166"/>
      <point x="970" y="1151" type="curve" smooth="yes"/>
      <point x="953" y="1139"/>
      <point x="930" y="1097"/>
      <point x="905" y="1033" type="curve"/>
      <point x="866" y="1018" type="line"/>
      <point x="788" y="1030" type="line"/>
      <point x="778" y="1053" type="line"/>
      <point x="810" y="1136"/>
      <point x="831" y="1204"/>
      <point x="846" y="1263" type="curve"/>
      <point x="949" y="1329"/>
      <point x="1024" y="1348"/>
      <point x="1109" y="1348" type="curve" smooth="yes"/>
      <point x="1303" y="1348"/>
      <point x="1446" y="1242"/>
      <point x="1446" y="1078" type="curve" smooth="yes"/>
      <point x="1446" y="939"/>
      <point x="1365" y="862"/>
      <point x="1172" y="728" type="curve" smooth="yes"/>
      <point x="1080" y="665"/>
      <point x="1038" y="632"/>
      <point x="1038" y="580" type="curve" smooth="yes"/>
      <point x="1038" y="557"/>
      <point x="1047" y="537"/>
      <point x="1066" y="518" type="curve"/>
      <point x="1066" y="502" type="line"/>
      <point x="1021" y="466" type="line"/>
    </contour>
  </outline>
</glyph>
<glyph name="facebook_1" format="1">
  <advance width="888"/>
  <unicode hex="E043"/>
  <outline>
    <contour>
      <point x="704" y="1052" type="line"/>
      <point x="860" y="1052" type="line"/>
      <point x="860" y="1132" type="line" smooth="yes"/>
      <point x="860" y="1305"/>
      <point x="883" y="1378"/>
      <point x="998" y="1439" type="curve" smooth="yes"/>
      <point x="1049" y="1467"/>
      <point x="1115" y="1481"/>
      <point x="1197" y="1481" type="curve" smooth="yes"/>
      <point x="1278" y="1481"/>
      <point x="1360" y="1468"/>
      <point x="1442" y="1443" type="curve"/>
      <point x="1403" y="1246" type="line"/>
      <point x="1350" y="1259"/>
      <point x="1304" y="1265"/>
      <point x="1265" y="1265" type="curve" smooth="yes"/>
      <point x="1191" y="1265"/>
      <point x="1161" y="1235"/>
      <point x="1161" y="1127" type="curve" smooth="yes"/>
      <point x="1161" y="1052" type="line"/>
      <point x="1401" y="1052" type="line"/>
      <point x="1381" y="841" type="line"/>
      <point x="1161" y="841" type="line"/>
      <point x="1161" y="20" type="line"/>
      <point x="860" y="20" type="line"/>
      <point x="860" y="841" type="line"/>
      <point x="704" y="841" type="line"/>
    </contour>
    <contour>
      <point x="66" y="789" type="curve" smooth="yes"/>
      <point x="66" y="238"/>
      <point x="511" y="-206"/>
      <point x="1061" y="-206" type="curve" smooth="yes"/>
      <point x="1610" y="-206"/>
      <point x="2056" y="239"/>
      <point x="2056" y="789" type="curve" smooth="yes"/>
      <point x="2056" y="1338"/>
      <point x="1610" y="1784"/>
      <point x="1061" y="1784" type="curve" smooth="yes"/>
      <point x="510" y="1784"/>
      <point x="66" y="1338"/>
    </contour>
  </outline>
</glyph>
<glyph name="twitter_1" format="2">
  <advance width="2124"/>
  <unicode hex="E044"/>
  <outline>
    <contour>
      <point x="66" y="789" type="curve" smooth="yes"/>
      <point x="66" y="238"/>
      <point x="510" y="-206"/>
      <point x="1061" y="-206" type="curve" smooth="yes"/>
      <point x="1610" y="-206"/>
      <point x="2056" y="238"/>
      <point x="2056" y="789" type="curve" smooth="yes"/>
      <point x="2056" y="1338"/>
      <point x="1610" y="1784"/>
      <point x="1061" y="1784" type="curve" smooth="yes"/>
      <point x="510" y="1784"/>
      <point x="66" y="1338"/>
    </contour>
    <contour>
      <point x="318" y="530" type="curve"/>
      <point x="369" y="482"/>
      <point x="466" y="436"/>
      <point x="576" y="436" type="curve" smooth="yes"/>
      <point x="665" y="436"/>
      <point x="763" y="466"/>
      <point x="852" y="553" type="curve"/>
      <point x="806" y="542"/>
      <point x="746" y="573"/>
      <point x="746" y="615" type="curve" smooth="yes"/>
      <point x="746" y="644"/>
      <point x="772" y="661"/>
      <point x="801" y="678" type="curve"/>
      <point x="741" y="662"/>
      <point x="646" y="704"/>
      <point x="630" y="766" type="curve"/>
      <point x="649" y="791"/>
      <point x="688" y="812"/>
      <point x="729" y="802" type="curve"/>
      <point x="655" y="822"/>
      <point x="572" y="876"/>
      <point x="563" y="949" type="curve"/>
      <point x="591" y="959"/>
      <point x="620" y="964"/>
      <point x="650" y="961" type="curve"/>
      <point x="568" y="1005"/>
      <point x="524" y="1076"/>
      <point x="531" y="1144" type="curve"/>
      <point x="811" y="1040"/>
      <point x="942" y="964"/>
      <point x="1014" y="892" type="curve"/>
      <point x="1046" y="979"/>
      <point x="1124" y="1174"/>
      <point x="1236" y="1241" type="curve"/>
      <point x="1236" y="1230"/>
      <point x="1232" y="1218"/>
      <point x="1223" y="1207" type="curve"/>
      <point x="1257" y="1226"/>
      <point x="1282" y="1256"/>
      <point x="1330" y="1256" type="curve"/>
      <point x="1325" y="1235"/>
      <point x="1310" y="1218"/>
      <point x="1287" y="1207" type="curve"/>
      <point x="1301" y="1216"/>
      <point x="1395" y="1250"/>
      <point x="1395" y="1221" type="curve" smooth="yes"/>
      <point x="1395" y="1187"/>
      <point x="1311" y="1174"/>
      <point x="1280" y="1164" type="curve"/>
      <point x="1388" y="1161"/>
      <point x="1475" y="1112"/>
      <point x="1544" y="999" type="curve" smooth="yes"/>
      <point x="1567" y="962"/>
      <point x="1582" y="925"/>
      <point x="1585" y="885" type="curve"/>
      <point x="1640" y="869"/>
      <point x="1704" y="865"/>
      <point x="1759" y="887" type="curve"/>
      <point x="1726" y="831"/>
      <point x="1665" y="808"/>
      <point x="1605" y="808" type="curve"/>
      <point x="1656" y="787"/>
      <point x="1713" y="789"/>
      <point x="1768" y="792" type="curve"/>
      <point x="1708" y="734"/>
      <point x="1659" y="728"/>
      <point x="1592" y="728" type="curve"/>
      <point x="1568" y="628"/>
      <point x="1521" y="533"/>
      <point x="1421" y="442" type="curve" smooth="yes"/>
      <point x="1253" y="290"/>
      <point x="1086" y="250"/>
      <point x="887" y="250" type="curve"/>
      <point x="787" y="249"/>
      <point x="690" y="265"/>
      <point x="585" y="314" type="curve" smooth="yes"/>
      <point x="478" y="363"/>
      <point x="389" y="435"/>
    </contour>
  </outline>
</glyph>
<glyph name="info_2" format="1">
  <advance width="2091"/>
  <unicode hex="E051"/>
  <outline>
    <contour>
      <point x="247" y="789" type="curve" smooth="yes"/>
      <point x="247" y="1228"/>
      <point x="604" y="1585"/>
      <point x="1043" y="1585" type="curve" smooth="yes"/>
      <point x="1482" y="1585"/>
      <point x="1839" y="1228"/>
      <point x="1839" y="789" type="curve" smooth="yes"/>
      <point x="1839" y="350"/>
      <point x="1482" y="-7"/>
      <point x="1043" y="-7" type="curve" smooth="yes"/>
      <point x="604" y="-7"/>
      <point x="247" y="350"/>
    </contour>
    <contour>
      <point x="48" y="789" type="curve" smooth="yes"/>
      <point x="48" y="238"/>
      <point x="493" y="-206"/>
      <point x="1043" y="-206" type="curve" smooth="yes"/>
      <point x="1592" y="-206"/>
      <point x="2038" y="239"/>
      <point x="2038" y="789" type="curve" smooth="yes"/>
      <point x="2038" y="1338"/>
      <point x="1592" y="1784"/>
      <point x="1043" y="1784" type="curve" smooth="yes"/>
      <point x="492" y="1784"/>
      <point x="48" y="1338"/>
    </contour>
    <contour>
      <point x="830" y="782" type="line"/>
      <point x="878" y="815"/>
      <point x="912" y="839"/>
      <point x="933" y="851" type="curve"/>
      <point x="930" y="812"/>
      <point x="907" y="706"/>
      <point x="868" y="558" type="curve"/>
      <point x="823" y="398"/>
      <point x="817" y="358"/>
      <point x="817" y="304" type="curve" smooth="yes"/>
      <point x="817" y="243"/>
      <point x="851" y="200"/>
      <point x="919" y="200" type="curve" smooth="yes"/>
      <point x="974" y="200"/>
      <point x="1015" y="217"/>
      <point x="1112" y="281" type="curve"/>
      <point x="1163" y="316"/>
      <point x="1226" y="359"/>
      <point x="1263" y="386" type="curve"/>
      <point x="1269" y="401" type="line"/>
      <point x="1239" y="453" type="line"/>
      <point x="1184" y="454" type="line"/>
      <point x="1139" y="422"/>
      <point x="1108" y="400"/>
      <point x="1089" y="388" type="curve"/>
      <point x="1090" y="418"/>
      <point x="1113" y="517"/>
      <point x="1158" y="685" type="curve" smooth="yes"/>
      <point x="1217" y="905"/>
      <point x="1225" y="929"/>
      <point x="1225" y="985" type="curve" smooth="yes"/>
      <point x="1225" y="1033"/>
      <point x="1186" y="1067"/>
      <point x="1135" y="1067" type="curve" smooth="yes"/>
      <point x="1096" y="1067"/>
      <point x="1048" y="1050"/>
      <point x="991" y="1017" type="curve" smooth="yes"/>
      <point x="930" y="981"/>
      <point x="849" y="925"/>
      <point x="749" y="848" type="curve"/>
      <point x="747" y="832" type="line"/>
      <point x="774" y="785" type="line"/>
    </contour>
    <contour>
      <point x="1018" y="1295" type="curve" smooth="yes"/>
      <point x="1018" y="1226"/>
      <point x="1057" y="1176"/>
      <point x="1150" y="1176" type="curve" smooth="yes"/>
      <point x="1261" y="1176"/>
      <point x="1301" y="1263"/>
      <point x="1301" y="1325" type="curve" smooth="yes"/>
      <point x="1301" y="1393"/>
      <point x="1253" y="1437"/>
      <point x="1170" y="1437" type="curve" smooth="yes"/>
      <point x="1082" y="1437"/>
      <point x="1018" y="1374"/>
    </contour>
  </outline>
</glyph>
<glyph name="help_2" format="1">
  <advance width="1921"/>
  <unicode hex="E052"/>
  <outline>
    <contour>
      <point x="153" y="713" type="curve" smooth="yes"/>
      <point x="153" y="1152"/>
      <point x="510" y="1509"/>
      <point x="949" y="1509" type="curve" smooth="yes"/>
      <point x="1388" y="1509"/>
      <point x="1745" y="1152"/>
      <point x="1745" y="713" type="curve" smooth="yes"/>
      <point x="1745" y="274"/>
      <point x="1388" y="-83"/>
      <point x="949" y="-83" type="curve" smooth="yes"/>
      <point x="510" y="-83"/>
      <point x="153" y="274"/>
    </contour>
    <contour>
      <point x="-46" y="713" type="curve" smooth="yes"/>
      <point x="-46" y="162"/>
      <point x="399" y="-282"/>
      <point x="949" y="-282" type="curve" smooth="yes"/>
      <point x="1498" y="-282"/>
      <point x="1944" y="163"/>
      <point x="1944" y="713" type="curve" smooth="yes"/>
      <point x="1944" y="1262"/>
      <point x="1498" y="1708"/>
      <point x="949" y="1708" type="curve" smooth="yes"/>
      <point x="398" y="1708"/>
      <point x="-46" y="1262"/>
    </contour>
    <contour>
      <point x="689" y="199" type="curve" smooth="yes"/>
      <point x="689" y="119"/>
      <point x="735" y="79"/>
      <point x="826" y="79" type="curve" smooth="yes"/>
      <point x="941" y="79"/>
      <point x="987" y="175"/>
      <point x="987" y="243" type="curve" smooth="yes"/>
      <point x="987" y="316"/>
      <point x="936" y="363"/>
      <point x="849" y="363" type="curve" smooth="yes"/>
      <point x="749" y="363"/>
      <point x="689" y="290"/>
    </contour>
    <contour>
      <point x="921" y="416" type="line"/>
      <point x="966" y="452" type="line"/>
      <point x="966" y="468" type="line"/>
      <point x="947" y="487"/>
      <point x="938" y="507"/>
      <point x="938" y="530" type="curve" smooth="yes"/>
      <point x="938" y="582"/>
      <point x="980" y="615"/>
      <point x="1072" y="678" type="curve" smooth="yes"/>
      <point x="1265" y="809"/>
      <point x="1346" y="890"/>
      <point x="1346" y="1028" type="curve" smooth="yes"/>
      <point x="1346" y="1192"/>
      <point x="1203" y="1298"/>
      <point x="1009" y="1298" type="curve" smooth="yes"/>
      <point x="924" y="1298"/>
      <point x="849" y="1279"/>
      <point x="746" y="1213" type="curve"/>
      <point x="731" y="1154"/>
      <point x="710" y="1086"/>
      <point x="678" y="1003" type="curve"/>
      <point x="688" y="980" type="line"/>
      <point x="766" y="968" type="line"/>
      <point x="805" y="983" type="line"/>
      <point x="830" y="1047"/>
      <point x="853" y="1090"/>
      <point x="870" y="1101" type="curve" smooth="yes"/>
      <point x="893" y="1116"/>
      <point x="920" y="1125"/>
      <point x="945" y="1125" type="curve" smooth="yes"/>
      <point x="1013" y="1125"/>
      <point x="1059" y="1081"/>
      <point x="1059" y="1017" type="curve" smooth="yes"/>
      <point x="1059" y="931"/>
      <point x="1017" y="877"/>
      <point x="910" y="770" type="curve" smooth="yes"/>
      <point x="854" y="714"/>
      <point x="820" y="672"/>
      <point x="808" y="645" type="curve"/>
      <point x="808" y="646" type="line"/>
      <point x="793" y="614"/>
      <point x="784" y="586"/>
      <point x="784" y="562" type="curve" smooth="yes"/>
      <point x="784" y="519"/>
      <point x="802" y="480"/>
      <point x="869" y="416" type="curve"/>
    </contour>
  </outline>
</glyph>
<glyph name="facebook_2" format="1">
  <advance width="2078"/>
  <unicode hex="E053"/>
  <outline>
    <contour>
      <point x="664" y="821" type="line"/>
      <point x="820" y="821" type="line"/>
      <point x="820" y="90" type="line"/>
      <point x="1121" y="90" type="line"/>
      <point x="1121" y="821" type="line"/>
      <point x="1341" y="821" type="line"/>
      <point x="1361" y="1032" type="line"/>
      <point x="1121" y="1032" type="line"/>
      <point x="1121" y="1107" type="line" smooth="yes"/>
      <point x="1121" y="1215"/>
      <point x="1151" y="1245"/>
      <point x="1225" y="1245" type="curve" smooth="yes"/>
      <point x="1264" y="1245"/>
      <point x="1310" y="1239"/>
      <point x="1363" y="1226" type="curve"/>
      <point x="1402" y="1423" type="line"/>
      <point x="1320" y="1448"/>
      <point x="1238" y="1461"/>
      <point x="1157" y="1461" type="curve" smooth="yes"/>
      <point x="989" y="1461"/>
      <point x="884" y="1392"/>
      <point x="849" y="1312" type="curve" smooth="yes"/>
      <point x="829" y="1267"/>
      <point x="820" y="1200"/>
      <point x="820" y="1112" type="curve" smooth="yes"/>
      <point x="820" y="1032" type="line"/>
      <point x="664" y="1032" type="line"/>
    </contour>
    <contour>
      <point x="247" y="789" type="curve" smooth="yes"/>
      <point x="247" y="1228"/>
      <point x="604" y="1585"/>
      <point x="1043" y="1585" type="curve" smooth="yes"/>
      <point x="1482" y="1585"/>
      <point x="1839" y="1228"/>
      <point x="1839" y="789" type="curve" smooth="yes"/>
      <point x="1839" y="350"/>
      <point x="1482" y="-7"/>
      <point x="1043" y="-7" type="curve" smooth="yes"/>
      <point x="604" y="-7"/>
      <point x="247" y="350"/>
    </contour>
    <contour>
      <point x="48" y="789" type="curve" smooth="yes"/>
      <point x="48" y="238"/>
      <point x="493" y="-206"/>
      <point x="1043" y="-206" type="curve" smooth="yes"/>
      <point x="1592" y="-206"/>
      <point x="2038" y="239"/>
      <point x="2038" y="789" type="curve" smooth="yes"/>
      <point x="2038" y="1338"/>
      <point x="1592" y="1784"/>
      <point x="1043" y="1784" type="curve" smooth="yes"/>
      <point x="492" y="1784"/>
      <point x="48" y="1338"/>
    </contour>
  </outline>
</glyph>
<glyph name="twitter_2" format="1">
  <advance width="2080"/>
  <unicode hex="E054"/>
  <outline>
    <contour>
      <point x="40" y="791" type="curve" smooth="yes"/>
      <point x="40" y="240"/>
      <point x="484" y="-204"/>
      <point x="1035" y="-204" type="curve" smooth="yes"/>
      <point x="1584" y="-204"/>
      <point x="2030" y="240"/>
      <point x="2030" y="791" type="curve" smooth="yes"/>
      <point x="2030" y="1340"/>
      <point x="1584" y="1786"/>
      <point x="1035" y="1786" type="curve" smooth="yes"/>
      <point x="484" y="1786"/>
      <point x="40" y="1340"/>
    </contour>
    <contour>
      <point x="239" y="791" type="curve" smooth="yes"/>
      <point x="239" y="1230"/>
      <point x="596" y="1587"/>
      <point x="1035" y="1587" type="curve" smooth="yes"/>
      <point x="1474" y="1587"/>
      <point x="1831" y="1230"/>
      <point x="1831" y="791" type="curve" smooth="yes"/>
      <point x="1831" y="352"/>
      <point x="1474" y="-5"/>
      <point x="1035" y="-5" type="curve" smooth="yes"/>
      <point x="596" y="-5"/>
      <point x="239" y="352"/>
    </contour>
    <contour>
      <point x="328" y="560" type="curve"/>
      <point x="399" y="465"/>
      <point x="488" y="393"/>
      <point x="595" y="344" type="curve" smooth="yes"/>
      <point x="700" y="296"/>
      <point x="797" y="280"/>
      <point x="897" y="280" type="curve" smooth="yes"/>
      <point x="910" y="280"/>
      <point x="998" y="286"/>
      <point x="1011" y="286" type="curve"/>
      <point x="1158" y="298"/>
      <point x="1298" y="352"/>
      <point x="1431" y="472" type="curve"/>
      <point x="1531" y="564"/>
      <point x="1578" y="658"/>
      <point x="1602" y="758" type="curve"/>
      <point x="1623" y="758" type="line" smooth="yes"/>
      <point x="1669" y="758"/>
      <point x="1718" y="764"/>
      <point x="1778" y="822" type="curve"/>
      <point x="1761" y="821"/>
      <point x="1745" y="820"/>
      <point x="1729" y="820" type="curve" smooth="yes"/>
      <point x="1689" y="820"/>
      <point x="1651" y="823"/>
      <point x="1615" y="838" type="curve"/>
      <point x="1675" y="838"/>
      <point x="1736" y="861"/>
      <point x="1769" y="917" type="curve"/>
      <point x="1742" y="905"/>
      <point x="1712" y="902"/>
      <point x="1684" y="902" type="curve" smooth="yes"/>
      <point x="1653" y="902"/>
      <point x="1623" y="906"/>
      <point x="1595" y="915" type="curve"/>
      <point x="1592" y="955"/>
      <point x="1577" y="992"/>
      <point x="1554" y="1029" type="curve" smooth="yes"/>
      <point x="1485" y="1142"/>
      <point x="1398" y="1191"/>
      <point x="1290" y="1194" type="curve"/>
      <point x="1321" y="1204"/>
      <point x="1405" y="1217"/>
      <point x="1405" y="1251" type="curve" smooth="yes"/>
      <point x="1405" y="1259"/>
      <point x="1400" y="1263"/>
      <point x="1389" y="1263" type="curve" smooth="yes"/>
      <point x="1362" y="1263"/>
      <point x="1326" y="1248"/>
      <point x="1298" y="1237" type="curve"/>
      <point x="1321" y="1248"/>
      <point x="1335" y="1264"/>
      <point x="1340" y="1286" type="curve"/>
      <point x="1292" y="1286"/>
      <point x="1267" y="1256"/>
      <point x="1233" y="1237" type="curve"/>
      <point x="1242" y="1248"/>
      <point x="1246" y="1259"/>
      <point x="1246" y="1268" type="curve" smooth="yes"/>
      <point x="1246" y="1271" type="line"/>
      <point x="1134" y="1204"/>
      <point x="1056" y="1009"/>
      <point x="1024" y="922" type="curve"/>
      <point x="952" y="994"/>
      <point x="821" y="1070"/>
      <point x="541" y="1174" type="curve"/>
      <point x="540" y="1172"/>
      <point x="540" y="1167"/>
      <point x="540" y="1159" type="curve" smooth="yes"/>
      <point x="540" y="1099"/>
      <point x="583" y="1031"/>
      <point x="660" y="991" type="curve"/>
      <point x="653" y="991"/>
      <point x="649" y="992"/>
      <point x="642" y="992" type="curve" smooth="yes"/>
      <point x="618" y="992"/>
      <point x="596" y="987"/>
      <point x="573" y="979" type="curve"/>
      <point x="578" y="954"/>
      <point x="581" y="934"/>
      <point x="612" y="903" type="curve" smooth="yes"/>
      <point x="644" y="870"/>
      <point x="688" y="848"/>
      <point x="739" y="832" type="curve"/>
      <point x="731" y="833"/>
      <point x="724" y="834"/>
      <point x="717" y="834" type="curve" smooth="yes"/>
      <point x="678" y="834"/>
      <point x="659" y="815"/>
      <point x="640" y="796" type="curve"/>
      <point x="650" y="744"/>
      <point x="729" y="705"/>
      <point x="779" y="705" type="curve" smooth="yes"/>
      <point x="788" y="705"/>
      <point x="799" y="706"/>
      <point x="811" y="708" type="curve"/>
      <point x="782" y="691"/>
      <point x="756" y="674"/>
      <point x="756" y="645" type="curve" smooth="yes"/>
      <point x="756" y="610"/>
      <point x="797" y="581"/>
      <point x="840" y="581" type="curve" smooth="yes"/>
      <point x="847" y="581"/>
      <point x="854" y="582"/>
      <point x="862" y="583" type="curve"/>
      <point x="773" y="496"/>
      <point x="675" y="466"/>
      <point x="586" y="466" type="curve" smooth="yes"/>
      <point x="476" y="466"/>
      <point x="379" y="512"/>
    </contour>
  </outline>
</glyph>
<glyph name="download_2" format="2">
  <advance width="2101"/>
  <unicode hex="E055"/>
  <outline>
    <contour>
      <point x="820" y="1030" type="line"/>
      <point x="820" y="697" type="line"/>
      <point x="523" y="697" type="line"/>
      <point x="1042" y="335" type="line"/>
      <point x="1562" y="697" type="line"/>
      <point x="1265" y="697" type="line"/>
      <point x="1265" y="1030" type="line"/>
    </contour>
    <contour>
      <point x="820" y="1227" type="line"/>
      <point x="820" y="1074" type="line"/>
      <point x="1265" y="1074" type="line"/>
      <point x="1265" y="1227" type="line"/>
    </contour>
    <contour>
      <point x="567" y="297" type="line"/>
      <point x="567" y="196" type="line"/>
      <point x="1517" y="196" type="line"/>
      <point x="1517" y="297" type="line"/>
    </contour>
    <contour>
      <point x="820" y="1370" type="line"/>
      <point x="820" y="1269" type="line"/>
      <point x="1265" y="1269" type="line"/>
      <point x="1265" y="1370" type="line"/>
    </contour>
    <contour>
      <point x="820" y="1452" type="line"/>
      <point x="820" y="1411" type="line"/>
      <point x="1265" y="1411" type="line"/>
      <point x="1265" y="1452" type="line"/>
    </contour>
    <contour>
      <point x="256" y="785" type="curve" smooth="yes"/>
      <point x="256" y="1224"/>
      <point x="613" y="1581"/>
      <point x="1052" y="1581" type="curve" smooth="yes"/>
      <point x="1491" y="1581"/>
      <point x="1848" y="1224"/>
      <point x="1848" y="785" type="curve" smooth="yes"/>
      <point x="1848" y="346"/>
      <point x="1491" y="-11"/>
      <point x="1052" y="-11" type="curve" smooth="yes"/>
      <point x="613" y="-11"/>
      <point x="256" y="346"/>
    </contour>
    <contour>
      <point x="57" y="785" type="curve" smooth="yes"/>
      <point x="57" y="234"/>
      <point x="502" y="-210"/>
      <point x="1052" y="-210" type="curve" smooth="yes"/>
      <point x="1601" y="-210"/>
      <point x="2047" y="235"/>
      <point x="2047" y="785" type="curve" smooth="yes"/>
      <point x="2047" y="1334"/>
      <point x="1601" y="1780"/>
      <point x="1052" y="1780" type="curve" smooth="yes"/>
      <point x="501" y="1780"/>
      <point x="57" y="1334"/>
    </contour>
  </outline>
</glyph>
